<svg width="100" height="19" viewBox="0 0 100 19" fill="none" xmlns="http://www.w3.org/2000/svg">
<g clip-path="url(#clip0)">
<path fill-rule="evenodd" clip-rule="evenodd" d="M46.8402 11.0795H43.9855L45.4131 7.41404L46.8402 11.0795ZM47.8023 13.5491L48.4393 15.1869H51.5799L46.857 3.50469H44.0173L39.2935 15.1869H42.3855L43.0238 13.5491H47.8023ZM34.2874 15.1879V8.24488L31.2215 11.9122L28.157 8.24488V15.1879H25.0864V3.50562H28.115L31.2215 7.52245L34.329 3.50562H37.3575V15.1879H34.2874ZM53.5322 3.50562V15.1879H56.6037V6.21871H60.8977V3.50562H53.5322ZM70.6986 10.6112V15.1879H73.7696V3.50562H70.6986V7.86544H66.1374V3.50562H63.0668V15.1879H66.1374V10.6112H70.6986ZM93.0762 15.1879V6.21871H89.4883V3.50562H99.7509V6.21871H96.1472V15.1879H93.0762ZM84.2575 8.52992V15.1879H87.3299V3.50562H84.678L79.8729 10.0935V3.50562H76.8009V15.1879H79.3696L84.2575 8.52992ZM0 5.58787C0 4.09908 0.587383 2.69721 1.65561 1.63927C2.17942 1.11779 2.80083 0.704618 3.48436 0.423351C4.16788 0.142084 4.90012 -0.00176656 5.63925 1.63727e-05H18.6612V2.83927H5.63925C4.90534 2.83858 4.20116 3.12916 3.68131 3.64721C3.42315 3.90025 3.218 4.20218 3.07783 4.53539C2.93767 4.86859 2.8653 5.22638 2.86495 5.58787L2.8486 10.3538C2.71589 11.6196 1.7528 12.6407 0.507009 12.829L0 12.9061V5.58787ZM0 18.6916V15.8519H13.022C13.3852 15.8525 13.745 15.7814 14.0807 15.6426C14.4164 15.5038 14.7213 15.3 14.978 15.043C15.237 14.7908 15.4427 14.4892 15.5831 14.1561C15.7234 13.8231 15.7956 13.4652 15.7953 13.1038L15.7977 8.58039C15.7977 7.23319 16.8107 6.06497 18.1547 5.8617L18.6612 5.78553V13.1038C18.6612 14.5925 18.0738 15.9939 17.0051 17.0514C16.4817 17.5733 15.8604 17.9868 15.1769 18.2683C14.4934 18.5497 13.7611 18.6936 13.022 18.6916H0ZM11.05 12.9061V9.28787L9.33037 11.2678L7.61028 9.28787V12.9061H5.33178V5.78553H7.49019L9.33037 8.07478L11.1701 5.78553H13.3294V12.9061H11.05Z" fill="#E6000E"/>
</g>
<defs>
<clipPath id="clip0">
<rect width="100" height="18.6916" fill="white"/>
</clipPath>
</defs>
</svg>
