<svg width="100" height="24" viewBox="0 0 100 24" fill="none" xmlns="http://www.w3.org/2000/svg">
<path fill-rule="evenodd" clip-rule="evenodd" d="M26.1924 16.893V7.39136H33.8872V16.893H32.0076V9.20752H28.0715V16.893H26.1924ZM39.3853 11.4177H38.3186C37.4298 11.4177 36.9852 11.7357 36.9852 12.3578C36.9852 12.9675 37.4175 13.2721 38.2809 13.2721C38.6621 13.2721 39.0299 13.2473 39.3853 13.1837V11.4177ZM41.1251 9.96976V16.8925H39.3853V14.4905C39.0482 14.5521 38.6913 14.6331 38.2601 14.6456L36.8202 16.8925H34.8647L36.5847 14.4011C35.6826 14.02 35.2077 13.3616 35.2077 12.3325C35.2077 10.9223 36.2358 9.96976 38.268 9.96976H41.1251ZM52.8835 10.5541C53.4164 11.0749 53.683 11.7864 53.683 12.7136V16.8925H51.8932V13.0436C51.8932 11.9896 51.3345 11.4306 50.5087 11.4306C49.6066 11.4306 48.985 12.0786 48.985 13.0947V16.893H47.1946V13.057C47.1946 12.0279 46.6484 11.4306 45.7978 11.4306C44.922 11.4306 44.287 12.0786 44.287 13.1077V16.893H42.4966V9.96976H44.2488V10.9606C44.6424 10.2366 45.4548 9.76702 46.3565 9.77945C47.2199 9.77945 48.0199 10.1988 48.3882 10.9988C48.8963 10.2366 49.8356 9.77945 50.8641 9.77945C51.6899 9.77945 52.3626 10.0329 52.8835 10.5546V10.5541ZM67.7022 14.8473C68.0576 14.4662 68.2356 13.9966 68.2356 13.4381C68.2356 12.8786 68.0576 12.409 67.7022 12.0274C67.3468 11.6468 66.8893 11.456 66.3183 11.456C65.7597 11.456 65.3022 11.6468 64.9473 12.0274C64.5914 12.409 64.4134 12.8786 64.4134 13.4381C64.4134 13.9966 64.5919 14.4667 64.9473 14.8478C65.3027 15.2289 65.7597 15.4192 66.3183 15.4192C66.8893 15.4192 67.3468 15.2289 67.7022 14.8478V14.8473ZM69.0738 10.8463C69.7211 11.5449 70.0388 12.409 70.0388 13.4252C70.0388 14.4413 69.7087 15.3049 69.0609 16.0041C68.4135 16.7022 67.6011 17.0575 66.6227 17.0575C65.7726 17.0575 64.9874 16.6858 64.4516 16.0279V19.7383H62.6612V9.96976H64.4387V10.8781C65.0072 10.1685 65.7597 9.79237 66.6355 9.79237C67.6135 9.79237 68.4259 10.1476 69.0738 10.8463ZM74.3943 15.4068C74.9401 15.4068 75.3847 15.216 75.7525 14.8349C76.1213 14.4413 76.3116 13.9713 76.3116 13.4252C76.3116 12.8786 76.1213 12.409 75.753 12.0279C75.3847 11.6468 74.9401 11.4565 74.3943 11.4565C73.8481 11.4565 73.3911 11.6468 73.0228 12.0279C72.655 12.409 72.4771 12.8791 72.4771 13.4252C72.4771 13.9713 72.655 14.4413 73.0228 14.8349C73.3911 15.216 73.8481 15.4063 74.3943 15.4063V15.4068ZM71.7276 10.8463C72.4265 10.1347 73.3153 9.77945 74.3943 9.77945C75.4734 9.77945 76.3622 10.1347 77.0611 10.8463C77.759 11.5449 78.102 12.409 78.102 13.4252C78.102 14.4538 77.759 15.3179 77.0611 16.0165C76.3622 16.7146 75.4734 17.0709 74.3943 17.0709C73.3153 17.0709 72.4265 16.7146 71.7276 16.0165C71.0292 15.3179 70.6867 14.4543 70.6867 13.4252C70.6867 12.409 71.0292 11.5449 71.7276 10.8463ZM83.143 9.96976H84.9339V16.893H83.143V14.5626C82.6191 14.8622 82.0515 15.0128 81.6064 15.0128C80.7816 15.0128 80.1719 14.8602 79.6257 14.492C79.0805 14.0985 78.7756 13.3616 78.7756 12.2942V9.96976H80.5531V12.1675C80.5531 12.9805 80.972 13.3869 81.8102 13.3869C82.28 13.3869 82.6806 13.3213 83.1435 13.136V9.96976H83.143ZM90.8513 16.893L88.0958 13.696V16.893H86.3054V9.95932H88.0958V12.7062L90.6099 9.96976H92.8701L89.7846 13.1762L93.0481 16.893H90.8513Z" fill="#EB2316"/>
<path fill-rule="evenodd" clip-rule="evenodd" d="M97.7653 12.0146C97.397 11.6206 96.9395 11.4303 96.3809 11.4303C95.8099 11.4303 95.3524 11.6206 94.9841 12.0146C94.6287 12.4086 94.4508 12.8782 94.4508 13.4243C94.4508 13.9833 94.6287 14.4534 94.997 14.8474C95.3653 15.241 95.8223 15.4313 96.3809 15.4313C96.9395 15.4313 97.397 15.241 97.7653 14.8474C98.1331 14.4534 98.324 13.9833 98.324 13.4243C98.324 12.8782 98.1331 12.4086 97.7653 12.0146ZM98.2987 9.96938H99.9998V16.8922H98.2987V15.9779C97.7039 16.6994 96.9653 17.0576 96.089 17.0576C95.0986 17.0576 94.2733 16.7148 93.6254 16.0161C92.9781 15.3175 92.6609 14.441 92.6609 13.3995C92.6609 12.3575 92.991 11.4939 93.6383 10.8206C94.2862 10.1348 95.1115 9.79198 96.089 9.79198C96.9524 9.79198 97.7143 10.1845 98.2987 10.8772V9.96938ZM58.6357 8.22924C58.6357 7.63247 59.1056 7.18774 59.7148 7.18774C60.3116 7.18774 60.7691 7.65781 60.7691 8.22924C60.7691 8.85185 60.3116 9.309 59.7148 9.309C59.1056 9.309 58.6357 8.85185 58.6357 8.22924ZM56.4265 12.7262H59.9438C59.7788 11.8238 59.1309 11.2782 58.2169 11.2782C57.3148 11.2782 56.6421 11.8238 56.4265 12.7257V12.7262ZM56.947 7.18774C57.5438 7.18774 58.0137 7.65781 58.0137 8.22924C58.0137 8.85185 57.5566 9.309 56.947 9.309C56.3373 9.309 55.8803 8.85185 55.8803 8.22924C55.8803 7.65781 56.3502 7.18774 56.947 7.18774ZM61.6197 14.0598H56.4265C56.6803 15.0377 57.3534 15.5331 58.4454 15.5331C59.1944 15.5331 60.0286 15.2524 60.6611 14.7505L61.3818 15.8849C60.5079 16.7033 59.5121 17.0447 58.3691 17.0447C57.1497 17.0447 56.2228 16.6894 55.5754 15.9908C54.9281 15.2921 54.6104 14.428 54.6104 13.4248C54.6104 12.3704 54.9405 11.5068 55.6136 10.8211C56.2867 10.1348 57.1502 9.79149 58.2169 9.79149C59.2201 9.79149 60.0578 10.109 60.7052 10.7316C61.353 11.3542 61.6831 12.1925 61.6831 13.2718C61.6831 13.5132 61.6584 13.7806 61.6197 14.0598Z" fill="#EB2316"/>
<path fill-rule="evenodd" clip-rule="evenodd" d="M11.6707 0C5.23532 0 0 5.24823 0 11.6994C0 18.1507 5.23532 23.3989 11.6707 23.3989C18.1055 23.3989 23.3413 18.1507 23.3413 11.6994C23.3413 5.24823 18.1055 0 11.6707 0Z" fill="white"/>
<path fill-rule="evenodd" clip-rule="evenodd" d="M17.56 3.30786C16.6693 5.59807 14.6415 6.07459 11.7041 6.07459C11.3888 6.07459 11.0766 6.06962 10.7752 6.06515C10.4837 6.06117 10.2081 6.0567 9.93799 6.0567C9.69808 6.0567 9.45619 6.05968 9.21777 6.07012C9.62918 5.05744 10.286 4.36924 11.2208 3.95184C12.5239 3.37047 14.2181 3.36451 15.7131 3.36004C16.3644 3.35755 16.988 3.35507 17.56 3.30786Z" fill="#008F32"/>
<path fill-rule="evenodd" clip-rule="evenodd" d="M18.4758 4.04263C17.1583 6.91966 14.2219 7.20786 11.7049 7.20786C11.1522 7.20786 10.6228 7.19445 10.1326 7.19146L9.49863 9.67694C12.7453 7.02351 17.0388 9.65409 16.5799 13.6581C16.2706 16.3547 14.3528 18.1182 12.324 18.6251C10.1138 19.1776 7.66513 18.3508 6.5672 16.0929C6.45072 15.8544 6.24799 15.3764 6.17066 15.1209L8.50133 14.5207C8.54247 14.6554 8.61236 14.7855 8.68572 14.9043C10.2461 17.427 13.408 16.1654 13.7649 13.5483C14.1282 10.8859 10.4018 9.46775 8.70357 12.5793L6.6366 11.6963L6.60091 11.6804L7.59771 7.66898C7.65918 7.38376 7.86637 6.58724 7.90206 6.45655C9.02873 2.30349 12.6734 2.2379 15.5969 2.22697C14.388 1.72262 13.0625 1.44336 11.6712 1.44336C6.02047 1.44336 1.44043 6.03469 1.44043 11.6993C1.44043 17.3639 6.02047 21.9553 11.6712 21.9553C17.3219 21.9553 21.9019 17.3639 21.9019 11.6993C21.9019 8.65433 20.5775 5.9209 18.4758 4.04263Z" fill="#EB2316"/>
</svg>
