<svg width="212" height="50" viewBox="0 0 212 50" fill="none" xmlns="http://www.w3.org/2000/svg">
<path fill-rule="evenodd" clip-rule="evenodd" d="M55.5083 36.0937V15.9573H71.8157V36.0937H67.8323V19.8062H59.4906V36.0937H55.5083ZM83.4674 24.4902H81.2068C79.3234 24.4902 78.3811 25.1641 78.3811 26.4825C78.3811 27.7746 79.2971 28.4201 81.127 28.4201C81.9348 28.4201 82.7142 28.3675 83.4674 28.2327V24.4902ZM87.1546 21.4216V36.0927H83.4674V31.0022C82.7531 31.1328 81.9968 31.3045 81.0829 31.3308L78.0313 36.0927H73.8872L77.5323 30.8127C75.6205 30.005 74.6141 28.6097 74.6141 26.4288C74.6141 23.4403 76.7928 21.4216 81.0997 21.4216H87.1546ZM112.074 22.66C113.203 23.7636 113.768 25.2715 113.768 27.2365V36.0927H109.975V27.9357C109.975 25.7022 108.791 24.5175 107.041 24.5175C105.129 24.5175 103.812 25.8907 103.812 28.0442V36.0937H100.017V27.9642C100.017 25.7833 98.8599 24.5175 97.0573 24.5175C95.2011 24.5175 93.8555 25.8907 93.8555 28.0716V36.0937H90.0612V21.4216H93.7746V23.5214C94.6086 21.9871 96.3303 20.9919 98.2411 21.0182C100.071 21.0182 101.766 21.907 102.547 23.6024C103.624 21.9871 105.614 21.0182 107.794 21.0182C109.544 21.0182 110.97 21.5553 112.074 22.661V22.66ZM143.478 31.7583C144.231 30.9506 144.609 29.9555 144.609 28.7719C144.609 27.5861 144.231 26.591 143.478 25.7823C142.725 24.9756 141.756 24.5712 140.545 24.5712C139.362 24.5712 138.392 24.9756 137.64 25.7823C136.886 26.591 136.508 27.5861 136.508 28.7719C136.508 29.9555 136.887 30.9517 137.64 31.7594C138.393 32.5671 139.362 32.9704 140.545 32.9704C141.756 32.9704 142.725 32.5671 143.478 31.7594V31.7583ZM146.385 23.2791C147.757 24.7597 148.43 26.591 148.43 28.7445C148.43 30.898 147.731 32.7282 146.358 34.2098C144.986 35.6894 143.264 36.4423 141.19 36.4423C139.389 36.4423 137.725 35.6546 136.589 34.2604V42.1235H132.795V21.4216H136.562V23.3465C137.767 21.8428 139.362 21.0456 141.218 21.0456C143.29 21.0456 145.012 21.7986 146.385 23.2791ZM157.661 32.9441C158.817 32.9441 159.759 32.5397 160.539 31.732C161.32 30.898 161.724 29.9018 161.724 28.7445C161.724 27.5861 161.32 26.591 160.54 25.7833C159.759 24.9756 158.817 24.5723 157.661 24.5723C156.503 24.5723 155.534 24.9756 154.754 25.7833C153.975 26.591 153.597 27.5872 153.597 28.7445C153.597 29.9018 153.975 30.898 154.754 31.732C155.534 32.5397 156.503 32.943 157.661 32.943V32.9441ZM152.009 23.2791C153.49 21.7712 155.374 21.0182 157.661 21.0182C159.947 21.0182 161.831 21.7712 163.312 23.2791C164.791 24.7597 165.518 26.591 165.518 28.7445C165.518 30.9243 164.791 32.7556 163.312 34.2362C161.831 35.7157 159.947 36.4707 157.661 36.4707C155.374 36.4707 153.49 35.7157 152.009 34.2362C150.529 32.7556 149.803 30.9254 149.803 28.7445C149.803 26.591 150.529 24.7597 152.009 23.2791ZM176.201 21.4216H179.997V36.0937H176.201V31.1549C175.091 31.7899 173.888 32.109 172.945 32.109C171.197 32.109 169.905 31.7857 168.747 31.0054C167.592 30.1714 166.946 28.6097 166.946 26.3477V21.4216H170.713V26.0792C170.713 27.802 171.6 28.6634 173.377 28.6634C174.372 28.6634 175.221 28.5244 176.202 28.1316V21.4216H176.201ZM192.537 36.0937L186.697 29.3184V36.0937H182.903V21.3994H186.697V27.2207L192.025 21.4216H196.816L190.276 28.2169L197.193 36.0937H192.537Z" fill="#EB2316"/>
<path fill-rule="evenodd" clip-rule="evenodd" d="M207.19 25.7557C206.409 24.9207 205.44 24.5173 204.256 24.5173C203.046 24.5173 202.076 24.9207 201.296 25.7557C200.543 26.5908 200.165 27.5859 200.165 28.7432C200.165 29.9279 200.542 30.9241 201.323 31.7592C202.103 32.5932 203.072 32.9965 204.256 32.9965C205.44 32.9965 206.409 32.5932 207.19 31.7592C207.969 30.9241 208.374 29.9279 208.374 28.7432C208.374 27.5859 207.969 26.5908 207.19 25.7557ZM208.32 21.4214H211.925V36.0925H208.32V34.1549C207.06 35.6839 205.494 36.4432 203.637 36.4432C201.538 36.4432 199.789 35.7166 198.416 34.236C197.044 32.7554 196.372 30.8978 196.372 28.6906C196.372 26.4823 197.072 24.6521 198.444 23.2252C199.817 21.772 201.566 21.0454 203.637 21.0454C205.467 21.0454 207.082 21.8773 208.32 23.3453V21.4214ZM124.264 17.7336C124.264 16.4689 125.26 15.5264 126.551 15.5264C127.816 15.5264 128.785 16.5226 128.785 17.7336C128.785 19.053 127.816 20.0219 126.551 20.0219C125.26 20.0219 124.264 19.053 124.264 17.7336ZM119.582 27.2637H127.036C126.687 25.3513 125.314 24.1951 123.377 24.1951C121.465 24.1951 120.039 25.3513 119.582 27.2626V27.2637ZM120.685 15.5264C121.95 15.5264 122.946 16.5226 122.946 17.7336C122.946 19.053 121.977 20.0219 120.685 20.0219C119.393 20.0219 118.425 19.053 118.425 17.7336C118.425 16.5226 119.421 15.5264 120.685 15.5264ZM130.588 30.0901H119.582C120.12 32.1625 121.547 33.2124 123.861 33.2124C125.448 33.2124 127.216 32.6174 128.556 31.5538L130.084 33.958C128.232 35.6923 126.121 36.4158 123.699 36.4158C121.115 36.4158 119.151 35.6628 117.779 34.1822C116.407 32.7017 115.733 30.8704 115.733 28.7443C115.733 26.5097 116.433 24.6795 117.86 23.2263C119.286 21.772 121.116 21.0444 123.377 21.0444C125.503 21.0444 127.278 21.7173 128.65 23.0367C130.023 24.3562 130.722 26.1327 130.722 28.4199C130.722 28.9317 130.67 29.4983 130.588 30.0901Z" fill="#EB2316"/>
<path fill-rule="evenodd" clip-rule="evenodd" d="M24.7331 0.293213C11.095 0.293213 0 11.4155 0 25.0873C0 38.7591 11.095 49.8814 24.7331 49.8814C38.3702 49.8814 49.4663 38.7591 49.4663 25.0873C49.4663 11.4155 38.3702 0.293213 24.7331 0.293213Z" fill="white"/>
<path fill-rule="evenodd" clip-rule="evenodd" d="M37.2144 7.30347C35.3268 12.157 31.0293 13.1669 24.8043 13.1669C24.1362 13.1669 23.4744 13.1563 22.8357 13.1469C22.218 13.1384 21.634 13.129 21.0615 13.129C20.5531 13.129 20.0404 13.1353 19.5352 13.1574C20.407 11.0113 21.7989 9.55279 23.7801 8.66823C26.5417 7.43615 30.1322 7.42351 33.3004 7.41404C34.6807 7.40877 36.0022 7.40351 37.2144 7.30347Z" fill="#008F32"/>
<path fill-rule="evenodd" clip-rule="evenodd" d="M39.1546 8.86105C36.3624 14.9582 30.1395 15.569 24.8052 15.569C23.634 15.569 22.5121 15.5406 21.4732 15.5342L20.1296 20.8016C27.0102 15.1783 36.1093 20.7532 35.1366 29.2387C34.4811 34.9536 30.4168 38.6909 26.1173 39.765C21.4333 40.936 16.244 39.1837 13.9172 34.3986C13.6703 33.8931 13.2407 32.8801 13.0768 32.3388L18.0161 31.0668C18.1033 31.3521 18.2514 31.628 18.4069 31.8797C21.7137 37.2261 28.4146 34.5524 29.171 29.0059C29.941 23.3637 22.0436 20.3583 18.4447 26.9525L14.0643 25.0812L13.9886 25.0475L16.1011 16.5462C16.2314 15.9418 16.6705 14.2537 16.7461 13.9768C19.1338 5.17537 26.8579 5.03637 33.0535 5.0132C30.4914 3.94435 27.6825 3.35254 24.7338 3.35254C12.7585 3.35254 3.05225 13.0827 3.05225 25.0875C3.05225 37.0923 12.7585 46.8225 24.7338 46.8225C36.7091 46.8225 46.4154 37.0923 46.4154 25.0875C46.4154 18.6344 43.6085 12.8416 39.1546 8.86105Z" fill="#EB2316"/>
</svg>
