<svg width="200" height="50" viewBox="0 0 200 50" fill="none" xmlns="http://www.w3.org/2000/svg">
<path d="M9.58638 9.61426L0 37.0038H6.98417L16.6526 9.61426H9.58638Z" fill="black"/>
<path d="M37.2019 23.446C36.353 27.664 33.5044 30.8138 29.0674 30.8138C24.5479 30.8138 22.521 27.5544 23.3978 23.0626C24.2466 18.6527 27.2596 15.6126 31.6968 15.6126C36.024 15.6126 38.1333 18.7623 37.2019 23.446ZM32.4637 9.06665C23.5348 9.06665 17.3994 14.6542 15.9751 22.4599C14.3317 31.4985 19.6728 37.3325 28.2455 37.3325C30.233 37.3325 32.0707 37.0572 33.744 36.5455C32.5354 40.4986 29.6537 42.4546 25.6712 42.4546C22.1105 42.4546 19.6455 41.3316 17.6732 39.5782L14.8247 46.1793C17.098 48.2062 21.3161 49.165 25.041 49.165C33.1483 49.165 39.3658 44.5906 41.5293 35.8262H35.6549C40.4878 33.6476 43.6388 29.2778 44.6245 23.8568C46.2677 14.8459 41.0641 9.06665 32.4637 9.06665Z" fill="black"/>
<path d="M14.2641 7.83332C16.7839 7.83332 18.8653 6.35428 19.3861 3.99886C19.9064 1.6159 18.3998 0 15.88 0C13.1136 0 11.2237 1.6159 10.7034 3.72481C10.1008 6.18984 11.4977 7.83332 14.2641 7.83332Z" fill="black"/>
<path d="M188.279 15.2292C191.892 15.2292 195.207 16.3522 197.754 17.8859L200 11.6413C199.206 11.0935 198.138 10.6277 196.877 10.2171C194.742 9.53239 192.058 9.06665 189.099 9.06665C182.855 9.06665 177.622 11.5044 176.774 17.3381C176.445 19.6391 176.966 21.5835 178.115 22.8984C179.321 24.2402 181.157 24.98 183.595 25.7744C185.293 26.3218 186.826 26.5959 187.895 27.1162C188.661 27.5 188.99 27.993 188.99 28.7872C188.99 30.5675 187.4 31.3892 184.334 31.3892C179.951 31.3892 176.198 29.8553 173.487 27.8561L171.625 34.2376C172.83 35.0595 174.282 35.7715 176.117 36.3193C178.226 36.9491 180.828 37.3601 183.922 37.3601C187.045 37.3601 190.113 36.9215 192.385 35.4974C194.468 34.1827 195.946 32.019 196.302 29.554C196.714 26.5412 195.837 24.6516 194.522 23.309C193.181 21.9945 191.4 21.2001 189.456 20.625C187.949 20.1592 186.279 19.7759 185.019 19.365C183.867 18.9816 183.348 18.5433 183.348 17.7218C183.348 16.3797 184.799 15.2292 188.279 15.2292Z" fill="black"/>
<path d="M155.55 30.8159C151.03 30.8159 149.004 27.5565 149.88 23.0647C150.729 18.6548 153.742 15.6147 158.179 15.6147C162.507 15.6147 164.615 18.7644 163.684 23.4481C162.835 27.6661 159.987 30.8159 155.55 30.8159ZM170.066 2.11182L167.031 12.9498C165.524 10.4845 162.728 9.06872 158.206 9.06872C150.099 9.06872 143.882 14.6562 142.402 22.8457C140.814 31.5004 145.552 37.3346 153.221 37.3346C156.932 37.3346 159.739 36.023 161.866 34.2066L161.356 37.0058H167.135L170.861 23.6399L176.832 2.11182H170.066Z" fill="black"/>
<path d="M100.374 23.446C99.5253 27.664 96.6769 30.8138 92.2399 30.8138C87.7203 30.8138 85.6936 27.5544 86.5705 23.0626C87.4193 18.6527 90.432 15.6126 94.8692 15.6126C99.1962 15.6126 101.306 18.7623 100.374 23.446ZM95.6363 9.06665C86.7073 9.06665 80.5718 14.6542 79.148 22.4599C77.5048 31.4985 82.8452 37.3325 91.418 37.3325C100.429 37.3325 106.373 31.6906 107.797 23.8568C109.44 14.8459 104.236 9.06665 95.6363 9.06665Z" fill="black"/>
<path d="M68.776 23.446C67.9545 27.664 65.0788 30.8138 60.6417 30.8138C56.122 30.8138 54.0951 27.5544 54.972 23.0626C55.8483 18.6527 58.8336 15.6126 63.2707 15.6126C67.5984 15.6126 69.7077 18.7623 68.776 23.446ZM64.0379 9.06665C55.109 9.06665 48.9733 14.6542 47.5494 22.4599C45.9057 31.4985 51.2472 37.3325 59.8197 37.3325C68.8311 37.3325 74.7747 31.6906 76.1987 23.8568C77.8419 14.8459 72.6379 9.06665 64.0379 9.06665Z" fill="black"/>
<path d="M131.997 23.446C131.148 27.664 128.299 30.8138 123.862 30.8138C119.343 30.8138 117.316 27.5544 118.193 23.0626C119.042 18.6527 122.055 15.6126 126.492 15.6126C130.819 15.6126 132.929 18.7623 131.997 23.446ZM127.259 9.06665C118.33 9.06665 112.194 14.6542 110.77 22.4599C109.127 31.4985 114.468 37.3325 123.041 37.3325C132.052 37.3325 137.996 31.6906 139.42 23.8568C141.063 14.8459 135.859 9.06665 127.259 9.06665Z" fill="black"/>
</svg>
