<svg width="200" height="45" viewBox="0 0 200 45" fill="none" xmlns="http://www.w3.org/2000/svg">
<path d="M0 30.9207C3.47336 38.869 11.5639 44.4415 20.9908 44.4415C17.5146 36.4932 9.42688 30.9234 0 30.9207Z" fill="#18A95D"/>
<path d="M20.9907 44.4415C27.9151 44.4415 33.877 40.432 36.5692 34.6665C29.6448 34.6665 23.6801 38.676 20.9907 44.4415Z" fill="#18A95D"/>
<path fill-rule="evenodd" clip-rule="evenodd" d="M38.0953 16.666C38.0953 25.8703 30.4373 33.3319 20.9908 33.3319C11.5442 33.3319 3.88623 25.8703 3.88623 16.666C3.88623 7.4616 11.5442 0 20.9908 0C30.4373 0 38.0953 7.4616 38.0953 16.666ZM29.5414 16.6662C29.5414 21.2676 25.7131 24.9978 20.9906 24.9978C16.2681 24.9978 12.4397 21.2676 12.4397 16.6662C12.4397 12.0647 16.2681 8.33453 20.9906 8.33453C25.7131 8.33453 29.5414 12.0647 29.5414 16.6662Z" fill="#FCBF00"/>
<path d="M130.15 16.6324H137.283V43.6852H130.15V33.1471H117.697V43.6852H110.567V16.6324H117.697V26.6016H130.15V16.6324ZM140.64 23.3411H149.519V43.6852H156.649V23.3411H165.417V16.6324H140.637V23.3411H140.64ZM200 37.801V43.5518C198.785 44.1478 197.266 44.4445 195.492 44.4445C191.788 44.4445 189.922 42.8632 189.174 40.324L189.055 40.4927C186.899 43.1436 183.913 44.4418 180.045 44.4418C176.34 44.4418 173.19 43.0891 170.537 40.3294C167.939 37.5697 166.613 34.1622 166.613 30.1588C166.613 26.1553 167.939 22.7995 170.537 20.0398C173.19 17.2801 176.34 15.873 180.045 15.873C183.746 15.873 186.635 17.0624 188.765 19.4846V16.6324H195.895V35.768C195.895 37.4037 196.655 38.2474 198.176 38.2474C198.885 38.2447 199.494 38.0977 200 37.801ZM189.057 30.1588C189.057 27.9407 188.34 26.1008 186.847 24.6938C185.409 23.2323 183.585 22.5301 181.374 22.5301C179.163 22.5301 177.339 23.2323 175.901 24.6938C174.463 26.1008 173.746 27.9407 173.746 30.1588C173.746 32.3769 174.463 34.2167 175.901 35.6782C177.339 37.0853 179.163 37.7874 181.374 37.7874C183.585 37.7874 185.409 37.0853 186.847 35.6782C188.337 34.2167 189.057 32.3769 189.057 30.1588ZM51.8159 16.6324L51.6046 26.7949C51.5545 30.9099 51.4016 32.9402 50.7926 35.2699C50.2364 37.5017 49.1713 38.1304 47.5 38.1304C46.9439 38.1304 46.4377 38.0814 46.0317 37.9317V43.6824C46.5879 43.9791 47.5 44.1288 48.7153 44.1288C53.7292 43.9791 56.1597 41.663 57.3777 37.5017C58.2397 34.5269 58.3899 32.2462 58.5429 28.8279L58.7014 23.3411H67.5584V43.6852H74.6886V16.6324H51.8159ZM86.1624 31.9822C86.93 36.6008 90.6702 38.1113 94.4661 38.1113C96.98 38.1113 99.6163 37.1506 101.238 35.7108L105.637 40.0409C103.009 42.8877 99.3549 44.4418 94.3549 44.4418C87.3582 44.4418 78.9183 40.4002 78.9183 30.1588C78.9183 19.9174 87.0468 15.8758 93.9489 15.8758C102.681 15.8758 106.293 19.8901 106.293 24.3917C106.293 31.7482 96.7381 35.1475 86.1624 31.9822ZM98.5484 25.1864C98.5484 23.088 96.4266 22.1518 94.0518 22.1518C90.4199 22.1518 87.2748 23.6514 86.3182 27.5134C93.7153 29.6036 98.5484 28.0441 98.5484 25.1864Z" fill="#171C8F"/>
</svg>
