<svg width="100" height="23" viewBox="0 0 100 23" fill="none" xmlns="http://www.w3.org/2000/svg">
<path d="M0 15.4607C1.73668 19.4349 5.78195 22.2211 10.4954 22.2211C8.75732 18.247 4.71344 15.4621 0 15.4607Z" fill="#18A95D"/>
<path d="M10.4956 22.2208C13.9578 22.2208 16.9388 20.216 18.2849 17.3333C14.8227 17.3333 11.8403 19.338 10.4956 22.2208Z" fill="#18A95D"/>
<path fill-rule="evenodd" clip-rule="evenodd" d="M19.0479 8.33298C19.0479 12.9352 15.2189 16.666 10.4956 16.666C5.77234 16.666 1.94336 12.9352 1.94336 8.33298C1.94336 3.7308 5.77234 0 10.4956 0C15.2189 0 19.0479 3.7308 19.0479 8.33298ZM14.7706 8.33298C14.7706 10.6337 12.8564 12.4988 10.4952 12.4988C8.1339 12.4988 6.21973 10.6337 6.21973 8.33298C6.21973 6.03227 8.1339 4.16717 10.4952 4.16717C12.8564 4.16717 14.7706 6.03227 14.7706 8.33298Z" fill="#FCBF00"/>
<path d="M65.0749 8.31619H68.6413V21.8426H65.0749V16.5735H58.8485V21.8426H55.2834V8.31619H58.8485V13.3008H65.0749V8.31619ZM70.3196 11.6706H74.7592V21.8426H78.3243V11.6706H82.7084V8.31619H70.3182V11.6706H70.3196ZM99.9998 18.9005V21.7759C99.3922 22.0739 98.633 22.2222 97.7459 22.2222C95.8938 22.2222 94.9609 21.4316 94.5868 20.162L94.527 20.2464C93.4495 21.5718 91.9561 22.2209 90.022 22.2209C88.17 22.2209 86.5946 21.5446 85.2681 20.1647C83.9695 18.7849 83.3062 17.0811 83.3062 15.0794C83.3062 13.0776 83.9695 11.3998 85.2681 10.0199C86.5946 8.64006 88.17 7.93652 90.022 7.93652C91.8727 7.93652 93.3174 8.5312 94.3824 9.74231V8.31619H97.9475V17.884C97.9475 18.7018 98.3271 19.1237 99.0877 19.1237C99.4422 19.1223 99.7467 19.0489 99.9998 18.9005ZM94.5284 15.0794C94.5284 13.9703 94.1697 13.0504 93.423 12.3469C92.7042 11.6161 91.7921 11.2651 90.6867 11.2651C89.5813 11.2651 88.6692 11.6161 87.9503 12.3469C87.2314 13.0504 86.8727 13.9703 86.8727 15.0794C86.8727 16.1884 87.2314 17.1083 87.9503 17.8391C88.6692 18.5426 89.5813 18.8937 90.6867 18.8937C91.7921 18.8937 92.7042 18.5426 93.423 17.8391C94.1683 17.1083 94.5284 16.1884 94.5284 15.0794ZM25.9077 8.31619L25.8021 13.3974C25.777 15.455 25.7006 16.4701 25.396 17.635C25.118 18.7508 24.5854 19.0652 23.7498 19.0652C23.4717 19.0652 23.2186 19.0407 23.0156 18.9658V21.8412C23.2937 21.9895 23.7498 22.0644 24.3574 22.0644C26.8643 21.9895 28.0796 20.8315 28.6886 18.7508C29.1196 17.2635 29.1947 16.1231 29.2712 14.414L29.3504 11.6706H33.779V21.8426H37.344V8.31619H25.9077ZM43.081 15.9911C43.4647 18.3004 45.3349 19.0557 47.2328 19.0557C48.4898 19.0557 49.8079 18.5753 50.6185 17.8554L52.8182 20.0205C51.5042 21.4439 49.6772 22.2209 47.1772 22.2209C43.6789 22.2209 39.4589 20.2001 39.4589 15.0794C39.4589 9.95868 43.5231 7.93788 46.9742 7.93788C51.3402 7.93788 53.1463 9.94507 53.1463 12.1958C53.1463 15.8741 48.3688 17.5737 43.081 15.9911ZM49.274 12.5932C49.274 11.544 48.2131 11.0759 47.0256 11.0759C45.2097 11.0759 43.6372 11.8257 43.1588 13.7567C46.8574 14.8018 49.274 14.022 49.274 12.5932Z" fill="#171C8F"/>
</svg>
