<svg width="214" height="40" viewBox="0 0 214 40" fill="none" xmlns="http://www.w3.org/2000/svg">
<g clip-path="url(#clip0)">
<path fill-rule="evenodd" clip-rule="evenodd" d="M100.238 23.71H94.129L97.184 15.866L100.238 23.71ZM102.297 28.995L103.66 32.5H110.381L100.274 7.50003H94.197L84.088 32.5H90.705L92.071 28.995H102.297ZM73.375 32.502V17.644L66.814 25.492L60.256 17.644V32.502H53.685V7.50203H60.166L66.814 16.098L73.464 7.50203H79.945V32.502H73.375ZM114.559 7.50203V32.502H121.132V13.308H130.321V7.50203H114.559ZM151.295 22.708V32.502H157.867V7.50203H151.295V16.832H141.534V7.50203H134.963V32.502H141.534V22.708H151.295ZM199.183 32.502V13.308H191.505V7.50203H213.467V13.308H205.755V32.502H199.183ZM180.311 18.254V32.502H186.886V7.50203H181.211L170.928 21.6V7.50203H164.354V32.502H169.851L180.311 18.254ZM0 11.958C0 8.77204 1.257 5.77203 3.543 3.50803C4.66395 2.39207 5.99378 1.50788 7.45653 0.905972C8.91927 0.30406 10.4863 -0.00378044 12.068 3.50375e-05H39.935V6.07604H12.068C10.4974 6.07456 8.99048 6.69641 7.878 7.80503C7.32554 8.34653 6.88652 8.99267 6.58656 9.70572C6.28661 10.4188 6.13174 11.1845 6.131 11.958L6.096 22.157C5.812 24.866 3.751 27.051 1.085 27.454L0 27.619V11.958ZM0 40V33.923H27.867C28.6444 33.9244 29.4143 33.7722 30.1327 33.4751C30.851 33.1781 31.5036 32.742 32.053 32.192C32.6071 31.6523 33.0473 31.007 33.3478 30.2941C33.6482 29.5813 33.8026 28.8156 33.802 28.042L33.807 18.362C33.807 15.479 35.975 12.979 38.851 12.544L39.935 12.381V28.042C39.935 31.228 38.678 34.227 36.391 36.49C35.2708 37.6069 33.9413 38.4918 32.4786 39.0941C31.016 39.6964 29.4488 40.0043 27.867 40H0ZM23.647 27.619V19.876L19.967 24.113L16.286 19.876V27.619H11.41V12.381H16.029L19.967 17.28L23.904 12.381H28.525V27.619H23.647Z" fill="#E6000E"/>
</g>
<defs>
<clipPath id="clip0">
<rect width="214" height="40" fill="white"/>
</clipPath>
</defs>
</svg>
