<svg width="181" height="50" viewBox="0 0 181 50" fill="none" xmlns="http://www.w3.org/2000/svg">
<path d="M58.1382 0.198608H63.1714L68.9115 18.254L74.614 0.198608H79.6793L71.76 23.6889H66.02L58.1382 0.198608Z" fill="#043E44"/>
<path d="M97.4346 15.3027C97.4346 20.3039 93.7454 24.1644 89.2476 24.1644C86.7953 24.1644 85.0174 23.2596 83.8128 21.7121V30.4025H79.4863V6.91223H83.8128V8.89342C85.0229 7.35134 86.8005 6.44104 89.2476 6.44104C93.7454 6.44104 97.4346 10.3016 97.4346 15.3027ZM93.1027 15.3027C93.1027 12.4863 91.1217 10.5693 88.439 10.5693C85.7885 10.5693 83.8074 12.4808 83.8074 15.3027C83.8074 18.1192 85.7885 20.0361 88.439 20.0361C91.127 20.0308 93.1027 18.1192 93.1027 15.3027Z" fill="#043E44"/>
<path d="M109.011 6.57568V11.4054C106.762 11.1377 103.908 12.1443 103.908 15.6676V23.6887H99.582V6.90769H103.908V9.79375C104.781 7.51265 106.896 6.57568 109.011 6.57568Z" fill="#043E44"/>
<path d="M109.113 15.3027C109.113 10.3016 113.038 6.44104 117.975 6.44104C122.907 6.44104 126.869 10.3016 126.869 15.3027C126.869 20.3039 122.907 24.1644 117.975 24.1644C113.038 24.159 109.113 20.2985 109.113 15.3027ZM122.537 15.3027C122.537 12.5827 120.556 10.6711 117.975 10.6711C115.426 10.6711 113.445 12.5827 113.445 15.3027C113.445 18.0228 115.426 19.9344 117.975 19.9344C120.556 19.929 122.537 18.0175 122.537 15.3027Z" fill="#043E44"/>
<path d="M139.447 23.6881L133.337 16.0687V23.6881H129.011V0.197876H133.337V14.2911L139.109 6.90711H144.276L137.53 15.1959L144.475 23.6881H139.447Z" fill="#043E44"/>
<path d="M145.385 21.274C145.385 19.6944 146.659 18.42 148.239 18.42C149.818 18.42 151.093 19.6944 151.093 21.274C151.093 22.8536 149.818 24.128 148.239 24.128C146.659 24.128 145.385 22.8536 145.385 21.274Z" fill="#043E44"/>
<path d="M163.236 6.57568V11.4054C160.987 11.1377 158.134 12.1443 158.134 15.6676V23.6887H153.801V6.90769H158.134V9.79375C159.012 7.51265 161.121 6.57568 163.236 6.57568Z" fill="#043E44"/>
<path d="M180.253 6.91248V23.6935H175.927V21.8141C174.921 23.3241 173.175 24.1647 170.926 24.1647C167.371 24.1647 164.581 21.6802 164.581 17.22V6.9179H168.907V16.6845C168.907 18.9654 170.283 20.1436 172.232 20.1436C174.347 20.1436 175.921 18.9013 175.921 15.983V6.92317H180.253V6.91248Z" fill="#043E44"/>
<path d="M71.7871 46.1286H69.1205V35.1411H64.3442V46.1286H61.6724V32.587H71.7871V46.1286Z" fill="#043E44"/>
<path d="M78.8277 44.1367C79.7969 44.1367 80.568 43.7297 80.9963 43.1675L83.0095 44.3294C82.0994 45.6467 80.6483 46.4016 78.7902 46.4016C75.54 46.4016 73.4893 44.1742 73.4893 41.2934C73.4893 38.4127 75.5614 36.1852 78.5975 36.1852C81.4622 36.1852 83.4916 38.4502 83.4916 41.2934C83.4916 41.663 83.4541 41.9895 83.3952 42.3161H76.1024C76.4503 43.5959 77.5105 44.1367 78.8277 44.1367ZM80.9963 40.3831C80.6858 38.991 79.6416 38.4288 78.5975 38.4288C77.2642 38.4288 76.3539 39.1463 76.0649 40.3831H80.9963Z" fill="#043E44"/>
<path d="M95.3898 41.2934C95.3898 44.1742 93.264 46.4016 90.6724 46.4016C89.2589 46.4016 88.2362 45.8769 87.5401 44.988V49.9998H85.0449V36.4583H87.5401V37.5989C88.2362 36.71 89.2589 36.1852 90.6724 36.1852C93.2587 36.1906 95.3898 38.4127 95.3898 41.2934ZM92.8946 41.2934C92.8946 39.6711 91.754 38.568 90.2067 38.568C88.6806 38.568 87.5347 39.6711 87.5347 41.2934C87.5347 42.9158 88.6753 44.0189 90.2067 44.0189C91.754 44.0242 92.8946 42.9212 92.8946 41.2934Z" fill="#043E44"/>
<path d="M101.794 44.1367C102.763 44.1367 103.534 43.7297 103.962 43.1675L105.976 44.3294C105.065 45.6467 103.614 46.4016 101.756 46.4016C98.5059 46.4016 96.4551 44.1742 96.4551 41.2934C96.4551 38.4127 98.5274 36.1852 101.563 36.1852C104.428 36.1852 106.457 38.4502 106.457 41.2934C106.457 41.663 106.42 41.9895 106.361 42.3161H99.0682C99.4109 43.5959 100.476 44.1367 101.794 44.1367ZM103.957 40.3831C103.646 38.991 102.602 38.4288 101.558 38.4288C100.225 38.4288 99.3145 39.1463 99.0253 40.3831H103.957Z" fill="#043E44"/>
<path d="M114.017 46.129L110.5 41.7384V46.129H108.004V36.4589H110.5V40.7156L113.825 36.4589H116.802L112.914 41.235L116.92 46.129H114.017Z" fill="#043E44"/>
<path d="M128.314 41.2934C128.314 44.1742 126.188 46.4016 123.597 46.4016C122.183 46.4016 121.16 45.8769 120.464 44.988V49.9998H117.969V36.4583H120.464V37.5989C121.16 36.71 122.183 36.1852 123.597 36.1852C126.183 36.1906 128.314 38.4127 128.314 41.2934ZM125.819 41.2934C125.819 39.6711 124.678 38.568 123.131 38.568C121.605 38.568 120.464 39.6711 120.464 41.2934C120.464 42.9158 121.605 44.0189 123.131 44.0189C124.678 44.0242 125.819 42.9212 125.819 41.2934Z" fill="#043E44"/>
<path d="M134.719 44.1371C135.688 44.1371 136.459 43.7301 136.887 43.1679L138.901 44.3297C137.991 45.6469 136.539 46.4019 134.681 46.4019C131.431 46.4019 129.38 44.1744 129.38 41.2938C129.38 38.413 131.453 36.1855 134.489 36.1855C137.353 36.1855 139.383 38.4505 139.383 41.2938C139.383 41.6633 139.345 41.9899 139.286 42.3165H131.993C132.341 43.5963 133.402 44.1371 134.719 44.1371ZM131.217 34.1402C131.217 33.4227 131.817 32.823 132.534 32.823C133.252 32.823 133.83 33.4227 133.83 34.1402C133.83 34.8577 133.252 35.436 132.534 35.436C131.817 35.436 131.217 34.8522 131.217 34.1402ZM136.887 40.3835C136.577 38.9913 135.533 38.4291 134.489 38.4291C133.155 38.4291 132.245 39.1466 131.956 40.3835H136.887ZM134.89 34.1402C134.89 33.4227 135.49 32.823 136.207 32.823C136.925 32.823 137.503 33.4227 137.503 34.1402C137.503 34.8577 136.925 35.436 136.207 35.436C135.49 35.436 134.89 34.8522 134.89 34.1402Z" fill="#043E44"/>
<path d="M140.347 41.2934C140.347 38.4127 142.515 36.1852 145.455 36.1852C147.35 36.1852 148.994 37.1919 149.787 38.6805L147.639 39.9388C147.254 39.1463 146.419 38.643 145.434 38.643C143.945 38.643 142.842 39.746 142.842 41.2934C142.842 42.8196 143.945 43.9225 145.434 43.9225C146.44 43.9225 147.27 43.4406 147.656 42.6481L149.824 43.885C148.994 45.395 147.35 46.4016 145.455 46.4016C142.515 46.4016 140.347 44.1742 140.347 41.2934Z" fill="#043E44"/>
<path d="M159.033 38.8576H156.013V46.129H153.518V38.8576H150.46V36.4589H159.027V38.8576H159.033Z" fill="#043E44"/>
<path d="M159.284 41.2934C159.284 38.4127 161.55 36.1852 164.392 36.1852C167.236 36.1852 169.517 38.4074 169.517 41.2934C169.517 44.1742 167.236 46.4016 164.392 46.4016C161.55 46.4016 159.284 44.1742 159.284 41.2934ZM167.022 41.2934C167.022 39.7246 165.881 38.6269 164.392 38.6269C162.925 38.6269 161.78 39.73 161.78 41.2934C161.78 42.8569 162.921 43.9653 164.392 43.9653C165.881 43.9653 167.022 42.8623 167.022 41.2934Z" fill="#043E44"/>
<path d="M177.099 46.129L173.576 41.7384V46.129H171.081V36.4589H173.576V40.7156L176.902 36.4589H179.878L175.99 41.235L179.996 46.129H177.099Z" fill="#043E44"/>
<path d="M37.4296 0H10.2743C5.16914 0 0.994629 4.17446 0.994629 9.27957V36.435C0.994629 41.5401 5.16914 45.7147 10.2743 45.7147H37.4296C42.5347 45.7147 46.7093 41.5401 46.7093 36.435V9.27957C46.7093 4.17974 42.5347 0 37.4296 0Z" fill="#043E44"/>
<path d="M24.0755 15.9249L17.146 22.8597L24.0755 29.7944C27.903 33.622 34.107 33.622 37.9293 29.7944C41.7568 25.967 41.7568 19.7578 37.9293 15.9302C34.1017 12.0975 27.8977 12.0975 24.0755 15.9249Z" fill="white"/>
<path d="M11.537 22.8597L4.60754 15.9249C4.09755 15.4149 3.5455 14.9837 2.96191 14.6157V31.1034C3.5455 30.7354 4.09755 30.299 4.60754 29.7891L11.537 22.8597Z" fill="white"/>
<path d="M21.2677 32.6019L14.3434 25.6671L7.41391 32.6019C5.09532 34.9205 4.20152 38.1382 4.69048 41.1456C6.03117 42.7333 8.03957 43.748 10.2793 43.748H23.1919C24.9217 40.1045 24.2803 35.6145 21.2677 32.6019Z" fill="white"/>
<path d="M7.41353 13.1173L14.3378 20.052L21.2673 13.1173C24.2799 10.1047 24.9108 5.60953 23.181 1.96606H10.2737C8.03393 1.96606 6.02553 2.98076 4.68484 4.57375C4.20114 7.5758 5.10019 10.804 7.41353 13.1173Z" fill="white"/>
</svg>
