<svg width="232" height="273" viewBox="0 0 232 273" fill="none" xmlns="http://www.w3.org/2000/svg">
<path fill-rule="evenodd" clip-rule="evenodd" d="M229.111 4.20516C228.935 4.0848 228.751 3.95929 228.558 3.82492C229.309 2.11441 229.262 1.66341 227.949 0.861245L227.864 0.80958C227.232 0.422068 226.561 0.0103792 225.683 0.154542C225.257 0.224778 224.819 0.217075 224.38 0.209362C223.962 0.202009 223.543 0.194646 223.134 0.254788C221.446 0.504093 219.828 0.961414 218.627 2.31144C218.241 2.74535 217.834 3.16019 217.412 3.58991C217.217 3.78852 217.019 3.99032 216.819 4.19865L216.834 4.8965C216.836 4.98067 216.839 5.06488 216.842 5.14911L216.842 5.14916L216.842 5.14922L216.842 5.14928L216.842 5.14934L216.842 5.1494L216.842 5.14946L216.842 5.14952L216.842 5.14958L216.842 5.14963L216.842 5.14969L216.842 5.14975L216.842 5.14981L216.842 5.14987L216.842 5.14993L216.842 5.14999L216.842 5.15004L216.842 5.1501L216.842 5.15016L216.842 5.15022L216.842 5.15028L216.842 5.15034L216.842 5.1504C216.847 5.31977 216.853 5.48923 216.851 5.65859C216.843 6.97816 216.839 6.97955 215.277 7.5399L215.24 7.55291C215.094 7.60525 214.95 7.69892 214.808 7.79083C214.594 7.9299 214.386 8.06496 214.187 8.04676C213.002 7.93785 212.419 8.63284 211.876 9.48112L213.274 9.87375L214.829 10.3105L214.763 10.6861L211.925 10.7494C211.562 12.5156 212.727 12.6624 213.814 12.7993C213.881 12.8078 213.949 12.8163 214.015 12.8251C213.561 13.893 213.5 14.7122 214.554 15.1993C215.402 15.5911 215.05 15.9491 214.69 16.3142C214.64 16.3644 214.591 16.4147 214.544 16.4652C216.137 17.4612 218.025 17.8833 219.894 17.6608C221.35 17.5455 222.813 17.53 224.277 17.5145L224.277 17.5145L224.277 17.5145L224.277 17.5145L224.278 17.5145L224.278 17.5145L224.278 17.5145L224.278 17.5145L224.278 17.5145L224.278 17.5145L224.279 17.5145L224.279 17.5145L224.279 17.5145L224.279 17.5145L224.279 17.5145L224.279 17.5145L224.28 17.5145L224.28 17.5145L224.28 17.5145L224.28 17.5145L224.28 17.5145L224.28 17.5145L224.281 17.5145L224.281 17.5145C225.033 17.5065 225.786 17.4986 226.537 17.477C226.975 17.4443 227.411 17.3896 227.843 17.313L227.826 17.0521L225.358 16.8611C225.98 16.5619 226.666 16.4177 227.356 16.4407C228.015 16.4122 228.671 16.3333 229.317 16.2046C229.902 16.026 230.473 15.8074 231.027 15.5504L229.834 15.1688C231.398 14.2656 231.397 14.2633 230.971 12.6655L230.967 12.6528C230.909 12.4341 230.822 12.0833 230.925 11.9859C231.497 11.4547 231.359 11.1029 230.915 10.5176C230.811 10.3807 230.92 10.1118 231.04 9.81568C231.151 9.54263 231.271 9.24636 231.242 9.00883C231.135 8.38951 230.891 7.80146 230.528 7.28659C230.304 6.94306 230.453 6.65671 230.597 6.37781C230.73 6.12057 230.86 5.86966 230.691 5.58606C230.581 5.37021 230.432 5.17637 230.251 5.01423C229.895 4.74089 229.523 4.48714 229.111 4.20517L229.111 4.20516ZM206.738 52.8062C206.638 52.5136 206.824 52.1234 207.189 51.3572C206.969 51.2149 206.79 51.0232 206.61 50.8298C206.225 50.4174 205.832 49.9969 205.023 50.0285C203.96 50.0532 202.944 50.4745 202.179 51.2087C202.09 51.2903 201.993 51.3711 201.895 51.4526L201.895 51.4527L201.895 51.4529L201.895 51.4531L201.895 51.4531L201.895 51.4531L201.895 51.4532C201.581 51.7152 201.257 51.9853 201.147 52.3172C200.823 53.2898 200.127 53.937 199.433 54.5826C199.096 54.8964 198.759 55.2099 198.465 55.5602C197.424 56.8011 195.881 57.2499 194.395 57.3913C190.789 57.7348 188.003 59.6957 185.218 61.6552L184.993 61.8137C184.092 62.4489 183.952 63.4934 183.809 64.5539C183.785 64.735 183.76 64.9166 183.732 65.0966L183.718 65.1849C183.411 67.1382 183.339 67.5972 184.773 68.3072C184.827 68.3336 184.879 68.3593 184.93 68.3845L184.931 68.3848C185.834 68.8272 186.422 69.1154 185.511 70.1946C185.441 70.2748 185.657 70.6156 185.823 70.8794L185.865 70.945L185.888 70.9826L185.905 71.01C185.972 71.1172 186.083 71.2443 186.185 71.3608C186.323 71.5176 186.443 71.6551 186.414 71.6989C185.687 72.7566 186.676 72.8147 187.171 72.8438L187.196 72.8453C187.363 72.8553 187.532 72.8667 187.702 72.8781C188.822 72.9534 189.981 73.0314 191.006 72.7263C191.368 72.6186 191.748 72.5453 192.13 72.4716C193.087 72.287 194.056 72.1001 194.769 71.3657C195.194 70.8443 195.849 70.5625 196.523 70.6111C196.838 70.5735 197.136 70.4468 197.381 70.246C197.557 70.1329 197.734 70.0205 197.911 69.908C198.678 69.4205 199.446 68.9324 200.166 68.383C200.649 68.0138 201.106 67.6112 201.564 67.2088L201.564 67.2087C202.031 66.7973 202.498 66.3861 202.993 66.0105C203.692 65.4797 204.344 64.888 204.987 64.3042C205.114 64.1882 205.242 64.0724 205.369 63.9575C205.515 63.8262 205.665 63.6961 205.815 63.5655L205.815 63.5654L205.815 63.5654L205.815 63.5653L205.815 63.5653L205.815 63.5652L205.815 63.5652L205.815 63.5651L205.815 63.5651L205.815 63.565L205.815 63.565L205.815 63.565L205.815 63.5649C206.831 62.681 207.878 61.769 208.056 60.2305C208.236 59.1375 208.475 58.0549 208.772 56.9874C208.166 56.4192 208.19 55.7178 208.213 55.0193C208.229 54.5708 208.244 54.1234 208.092 53.7133C207.253 53.3086 206.842 53.11 206.738 52.8062ZM43.9141 244.727C46.1514 245.025 48.1547 245.796 49.56 247.502C49.95 247.446 50.3063 247.388 50.6401 247.335L50.6403 247.335C51.3064 247.227 51.8833 247.134 52.4614 247.093C53.5992 247.016 54.7507 246.68 55.0102 245.583C55.3196 244.274 55.8085 243.487 57.2015 243.396C57.3609 243.365 57.4972 243.263 57.5713 243.12C58.0964 241.842 59.0668 240.945 60.0369 240.048L60.037 240.047C60.543 239.58 61.0488 239.112 61.4914 238.59C61.5526 238.518 61.6108 238.45 61.6661 238.385C62.6607 237.22 62.714 237.158 62.5235 235.118C62.4852 234.708 62.4154 234.301 62.3352 233.834C62.2955 233.602 62.2533 233.356 62.2111 233.087C63.2306 232.165 64.3078 231.309 65.4362 230.523C65.7586 230.32 66.046 230.056 66.3339 229.792C66.9398 229.235 67.548 228.677 68.4893 228.684C68.5747 227.914 69.1088 227.465 69.5934 227.058C69.9089 226.793 70.2033 226.545 70.3393 226.238L69.765 223.666L68.346 223.698C68.5989 223.392 68.7469 223.214 68.814 223.134L68.1619 222.187C64.3813 224.037 60.7857 226.238 57.4235 228.763C56.9269 229.176 56.2295 229.255 55.6527 228.962C56.1881 228.582 56.7043 228.203 57.2111 227.831L57.2114 227.83L57.2125 227.83C58.3276 227.011 59.3972 226.226 60.525 225.536C61.9706 224.652 63.4659 223.848 64.964 223.042L64.9641 223.042C65.6111 222.694 66.2586 222.345 66.9028 221.99C65.8975 220.643 65.893 220.645 64.6856 221.201L64.6314 221.225C61.1138 222.845 57.8775 224.949 54.6507 227.046C54.1594 227.365 53.6684 227.684 53.1766 228.002C49.5287 230.355 45.9579 232.863 43.1005 236.239C42.5423 236.898 42.1638 237.625 41.7859 238.35C41.614 238.679 41.4423 239.009 41.2539 239.332C41.0733 239.766 41.1255 240.261 41.3926 240.648C41.8851 241.106 42.009 241.624 42.1422 242.181C42.1761 242.323 42.2107 242.468 42.2521 242.615C42.2716 242.684 42.2908 242.755 42.3104 242.827C42.5266 243.627 42.7828 244.575 43.9141 244.727ZM115.02 217.365L115.021 217.364C115.841 216.551 116.622 215.775 117.304 214.921C119.63 212.004 122.787 210.286 125.943 208.569C126.686 208.165 127.429 207.761 128.161 207.342C129.615 206.508 131.241 206.539 132.848 206.569C133.148 206.574 133.447 206.58 133.745 206.58C133.967 206.579 134.19 206.784 134.42 206.995C134.529 207.095 134.639 207.196 134.751 207.278L134.729 207.29C134.028 207.661 133.369 208.011 132.413 208.52L135.91 208.441C136.031 208.671 136.135 208.901 136.236 209.122L136.236 209.122C136.457 209.606 136.66 210.054 136.981 210.389C137.432 210.906 137.567 211.624 137.334 212.268C137.229 212.727 136.937 213.145 136.631 213.583L136.631 213.583C136.495 213.778 136.356 213.976 136.23 214.183C134.385 213.834 132.864 214.587 131.282 215.513C131.367 215.797 131.35 216.101 131.333 216.412C131.303 216.965 131.272 217.536 131.812 218.035C131.993 218.325 132.017 218.686 131.876 218.997C131.607 219.466 131.369 219.959 131.131 220.452C130.363 222.042 129.594 223.635 127.758 224.429L127.72 224.445L127.633 224.482C127.223 224.657 126.746 224.86 126.577 225.187C126.458 225.415 126.227 225.466 125.997 225.516C125.678 225.586 125.363 225.655 125.354 226.192C125.346 226.699 124.993 226.66 124.633 226.621C124.453 226.602 124.271 226.582 124.131 226.631C123.621 226.843 123.096 227.019 122.561 227.157C122.054 227.217 121.543 227.234 121.034 227.209C119.288 225.373 117.117 223.987 114.71 223.173L113.843 218.552C114.24 218.139 114.634 217.748 115.02 217.365ZM211.593 152.762C211.423 152.525 211.252 152.289 211.083 152.054C210.49 151.233 209.906 150.425 209.366 149.589C209.322 149.522 209.468 149.332 209.652 149.094C209.75 148.967 209.858 148.826 209.955 148.682C209.533 148.493 209.125 148.273 208.735 148.024C208.345 147.696 207.971 147.348 207.617 146.982L207.516 146.889C206.787 146.221 206.064 145.558 207.12 144.523C207.171 144.473 207.157 144.36 207.141 144.242C207.131 144.169 207.121 144.093 207.127 144.029C207.153 143.727 207.152 143.429 207.151 143.133C207.147 142.258 207.144 141.399 207.844 140.488C208.143 140.099 208.404 139.669 208.667 139.234C209.069 138.572 209.478 137.898 210.04 137.339C210.86 136.414 211.808 135.611 212.856 134.954C214.579 134.004 216.282 133.068 218.334 133.347C218.923 133.516 219.49 133.754 220.022 134.057L218.754 135.666C219.137 135.771 219.535 135.839 219.938 135.907C221.002 136.086 222.096 136.271 223.001 137.176L221.845 138.787L223.712 138.745C223.814 139.265 223.943 139.77 224.072 140.27C224.354 141.369 224.63 142.443 224.586 143.598C224.589 144.487 224.27 145.347 223.688 146.022C223.437 146.295 223.211 146.588 222.985 146.881C222.548 147.448 222.109 148.017 221.481 148.452C221.046 148.752 220.648 149.108 220.246 149.466L220.246 149.466C219.854 149.817 219.459 150.17 219.021 150.479C218.109 151.12 217.094 151.508 216.08 151.895C215.473 152.127 214.867 152.358 214.284 152.644C213.772 152.895 213.112 152.847 212.459 152.799L212.459 152.799L212.458 152.799C212.164 152.777 211.871 152.756 211.593 152.762ZM154.711 46.1448L160.208 46.0221L160.31 45.5506C159.913 45.4456 159.508 45.2981 159.102 45.1506C158.181 44.8156 157.26 44.4805 156.442 44.6439C156.1 44.7129 155.75 44.7658 155.397 44.8192C154.274 44.9887 153.119 45.1632 152.104 45.8726C151.506 46.291 150.847 46.6293 150.188 46.9673C148.66 47.7506 147.135 48.5326 146.379 50.3077C145.14 50.6348 144.725 51.6461 144.327 52.617C144.22 52.8779 144.114 53.1358 143.994 53.3768C143.216 54.9359 142.462 56.6025 143.678 58.3867C144.487 59.5739 145.241 60.7986 145.986 62.0107L145.986 62.0108L145.986 62.0109C146.312 62.5407 146.636 63.068 146.963 63.5886C147.769 63.5158 148.58 63.5047 149.389 63.5554C150.992 63.7809 152.33 63.0299 153.401 62.1594C154.027 61.6501 154.808 61.3668 155.616 61.3559C156.385 60.9294 156.843 60.3136 157.288 59.716C157.681 59.1881 158.064 58.6745 158.64 58.3184C159.193 57.8547 159.504 57.1659 159.484 56.447C159.452 56.0283 159.486 55.6004 159.521 55.1708C159.6 54.1985 159.68 53.2174 158.98 52.3145C158.873 52.1766 158.976 51.8934 159.086 51.5887C159.162 51.3781 159.242 51.1572 159.26 50.9667C159.273 50.8194 159.188 50.663 159.075 50.4558C159.015 50.3458 158.948 50.2213 158.883 50.0763C159.39 50.134 159.903 50.1104 160.403 50.0063C160.807 49.8494 161.412 49.3436 161.368 49.0833C161.198 48.3189 160.91 47.5851 160.516 46.9074C160.246 46.3915 159.772 46.4399 159.311 46.4869C159.174 46.5009 159.039 46.5147 158.91 46.5136C158.654 46.5112 158.398 46.5132 158.142 46.5153C157 46.5245 155.855 46.5338 154.711 46.1448ZM133.585 95.9076L137.016 92.3421C137.966 92.2704 138.919 92.2643 139.87 92.3239C140.239 92.3653 140.619 92.8821 140.844 93.2695C140.903 93.3716 140.758 93.5915 140.613 93.8109L140.613 93.811C140.55 93.9066 140.487 94.002 140.441 94.0875C140.55 94.139 140.663 94.1871 140.778 94.2356C141.452 94.52 142.157 94.8178 141.973 95.8903C141.91 96.1321 141.941 96.3883 142.058 96.609C142.578 97.2214 143.111 97.8873 142.906 98.6889C142.836 98.9625 142.772 99.2418 142.708 99.5226C142.435 100.717 142.156 101.937 141.373 102.856C139.462 105.1 137.379 107.239 134.572 108.397C132.906 109.119 131.174 109.679 129.4 110.07C128.469 110.271 127.504 109.923 126.919 109.176C126.515 108.629 126.099 108.09 125.683 107.551L125.683 107.551L125.682 107.551L125.682 107.55L125.682 107.55L125.682 107.55L125.682 107.55L125.681 107.549L125.681 107.549L125.681 107.549L125.681 107.548L125.68 107.548L125.68 107.548L125.68 107.547L125.68 107.547L125.68 107.547L125.679 107.547L125.679 107.546L125.679 107.546L125.679 107.546L125.679 107.546L125.679 107.546L125.679 107.545L125.679 107.545L125.678 107.545L125.678 107.545L125.678 107.545L125.678 107.545L125.678 107.545L125.678 107.545L125.678 107.545L125.678 107.545L125.678 107.545L125.678 107.544L125.678 107.544L125.678 107.544L125.678 107.544L125.678 107.544L125.677 107.544C125.013 106.683 124.349 105.823 123.733 104.928C123.369 104.403 123.178 103.778 123.186 103.14C123.426 99.4323 125.119 96.7565 129.3 95.5699C129.499 95.5133 129.7 95.4328 129.901 95.3525C130.315 95.1872 130.726 95.0226 131.113 95.0696C131.965 95.2589 132.794 95.5399 133.585 95.9076ZM42.6985 103.984L41.1642 104.321C41.9901 104.663 42.6889 104.78 43.4684 104.153C43.9668 103.753 44.5438 103.476 45.1253 103.198C45.9092 102.822 46.7012 102.442 47.3198 101.75C47.6683 101.294 48.0694 100.879 48.5148 100.515C51.4807 98.6334 53.1164 95.8214 54.4036 92.726C54.4195 92.6879 54.4368 92.6473 54.4548 92.6051L54.4548 92.6049C54.6062 92.2497 54.8084 91.775 54.6781 91.6224C54.2602 91.1349 54.4052 90.7267 54.5589 90.294C54.5956 90.1906 54.6329 90.0858 54.663 89.9782C54.7502 89.6658 54.8068 89.1649 54.6326 88.9927C54.0454 88.411 53.7436 87.6985 53.4394 86.9802L53.4393 86.98L53.4392 86.9797L53.439 86.9794L53.4389 86.9791L53.4387 86.9788L53.4386 86.9785L53.4385 86.9781C53.3731 86.8237 53.3076 86.669 53.2391 86.5153C53.1533 86.3233 52.9633 85.9638 52.51 86.3141C52.2868 86.4856 51.967 86.5319 51.6023 86.5847C51.4254 86.6104 51.2379 86.6375 51.0458 86.6813C51.6434 85.421 51.8958 84.3838 50.8399 83.6981C50.5051 83.8354 50.1669 83.9502 49.8363 84.0624L49.8361 84.0625L49.8356 84.0627C49.1294 84.3023 48.4582 84.5301 47.9302 84.9394C47.4217 85.3334 46.8597 85.6638 46.2974 85.9943L46.2973 85.9944C45.0946 86.7015 43.8904 87.4094 43.2035 88.7423C40.5332 90.2806 39.1293 92.8143 37.7201 95.3576L37.5808 95.6089L37.4663 95.8151L37.3629 96.0004C36.7979 96.8011 36.8188 97.8729 37.4146 98.6509C37.4388 98.6861 37.4649 98.722 37.4917 98.7588L37.4934 98.7612L37.4941 98.762C37.7271 99.0821 38.0092 99.4695 37.5206 100.03C37.3767 100.295 37.3588 100.61 37.4719 100.889C37.5849 101.168 37.8172 101.382 38.1055 101.474C38.8674 101.661 39.4511 102.171 40.037 102.683C40.792 103.343 41.5505 104.006 42.6985 103.984ZM164.064 256.212L165.535 256.388C165.489 256.454 165.453 256.518 165.421 256.575C165.362 256.678 165.318 256.758 165.251 256.787C164.818 256.974 164.391 257.173 163.963 257.372L163.962 257.372C162.817 257.905 161.672 258.438 160.428 258.745C160.369 258.76 160.309 258.774 160.25 258.789C159.239 259.043 158.277 259.284 157.46 258.32C157.235 258.055 156.859 258.001 156.483 257.947C155.873 257.859 155.263 257.772 155.298 256.786C154.099 256.081 154.158 254.918 154.216 253.791L154.22 253.704C153.43 253.521 152.653 253.285 151.895 252.996C151.092 252.632 150.84 251.417 151.186 250.1C151.218 249.978 151.285 249.857 151.35 249.737C151.445 249.563 151.538 249.394 151.52 249.232L151.514 249.175C151.287 247.118 151.287 247.113 152.933 246.192C153.736 245.684 154.567 245.222 155.422 244.807C156.427 244.42 157.213 243.618 157.576 242.61C158.196 241.048 159.584 239.917 161.246 239.619C162.74 239.337 164.131 240.003 165.242 241.309C164.39 241.988 163.541 242.664 162.351 243.613C162.761 243.604 163.126 243.594 163.462 243.585L163.463 243.585L163.464 243.585L163.464 243.585L163.465 243.585L163.466 243.585L163.466 243.585L163.467 243.585L163.468 243.585L163.468 243.585L163.469 243.585L163.469 243.585L163.47 243.585L163.47 243.585L163.471 243.585L163.471 243.585L163.471 243.585L163.472 243.585C164.146 243.567 164.701 243.553 165.255 243.552C165.919 243.551 165.945 243.608 166.241 244.287C166.317 244.459 166.41 244.672 166.536 244.934C166.685 245.246 166.729 245.61 166.772 245.973C166.857 246.679 166.942 247.385 167.807 247.719L167.974 250.471C168.079 252.167 167.926 253.676 166.047 254.509C165.535 254.734 165.115 255.163 164.682 255.608C164.482 255.812 164.28 256.02 164.064 256.212ZM149.08 2.49556C147.502 2.68573 146.247 3.90088 146.014 5.46335L148.192 6.3058C146.825 6.76483 145.799 7.38557 145.66 8.99098C146.155 9.21447 146.639 9.46287 147.109 9.73523C147.23 9.81166 147.338 9.92485 147.445 10.037C147.748 10.3529 148.042 10.6603 148.573 10.1123L148.492 11.637C149.291 11.9818 150.359 12.4435 151.359 12.8764C151.322 13.0369 151.285 13.194 151.249 13.3487L151.249 13.349L151.249 13.3502C151.134 13.8405 151.024 14.3062 150.943 14.7765C150.926 14.8594 151.16 15.0784 151.265 15.0692C151.492 15.0485 151.857 14.9667 151.9 14.8277C151.944 14.6886 151.928 14.5203 151.912 14.3576C151.893 14.1615 151.875 13.9734 151.963 13.8538C152.061 13.7186 152.292 13.679 152.607 13.625C152.771 13.5969 152.958 13.5649 153.16 13.5135L152.271 14.5561C152.86 14.5429 153.439 14.5304 154.01 14.518C156.105 14.4725 158.094 14.4294 160.083 14.3682C160.203 14.3644 160.317 14.2872 160.433 14.2083C160.524 14.1471 160.616 14.0848 160.713 14.0552C161.251 13.8916 161.76 13.6289 162.26 13.3712C163.245 12.8632 164.191 12.3751 165.24 12.7068C166.578 12.184 166.633 11.2062 166.686 10.287C166.72 9.68414 166.753 9.10641 167.145 8.69876C166.968 8.37824 166.758 8.07022 166.554 7.76998L166.554 7.76991C166.114 7.12384 165.699 6.51377 165.681 5.89264C165.662 5.2117 165.298 4.72322 164.942 4.24424C164.579 3.75592 164.223 3.27746 164.246 2.61501C164.252 2.44502 163.743 2.0963 163.481 2.10634C163.008 2.12404 162.579 1.98504 162.145 1.84441C161.66 1.68752 161.169 1.52862 160.605 1.58308C158.397 1.8008 156.176 1.85315 153.959 1.73971C152.783 1.67624 151.672 1.93103 150.57 2.18403L150.57 2.18405C150.073 2.29799 149.578 2.41157 149.08 2.49556ZM32.3761 195.521C32.3773 195.318 32.3862 195.116 32.3949 194.918C32.4427 193.831 32.4856 192.855 31.2309 192.344C32.6323 191.238 33.6418 191.088 34.7993 192.157C35.0937 192.429 35.4136 192.666 35.7351 192.903C36.2861 193.311 36.8417 193.721 37.2818 194.321C37.6346 194.8 38.2222 195.097 38.8192 195.398C39.2561 195.618 39.6981 195.841 40.0567 196.14C40.5084 196.517 40.8452 197.03 41.1819 197.542L41.1821 197.543L41.1822 197.543L41.1824 197.543C41.3325 197.772 41.4825 198 41.6428 198.217L40.828 199.08L39.9467 197.903L39.6422 198.042L39.9702 199.849C39.8992 199.898 39.7975 199.95 39.6828 200.009C39.3793 200.164 38.9849 200.365 38.8272 200.682C37.5254 203.31 35.2918 205.017 32.996 206.647C32.5494 206.964 32.0216 207.164 31.4915 207.364L31.4911 207.364C31.1268 207.502 30.7615 207.64 30.4208 207.817C30.3084 207.876 30.2011 207.932 30.0982 207.985L30.0888 207.99C28.304 208.921 27.8642 209.151 26.0625 208.896C24.6835 208.701 23.2137 208.484 22.0686 207.436C21.6241 206.974 21.0386 206.671 20.403 206.574C18.9743 206.55 18.7282 205.776 18.7768 204.628C18.7868 204.3 18.744 203.973 18.65 203.659C18.064 201.671 18.1151 201.464 19.6355 200.432C21.5096 199.16 23.6222 198.417 25.7309 197.676C26.1553 197.527 26.5795 197.378 27.0015 197.225C28.2353 196.776 29.4942 196.396 30.7366 196.022L30.7369 196.022L30.7373 196.022L30.7376 196.021L30.7379 196.021L30.7382 196.021L30.7385 196.021L30.7389 196.021L30.7392 196.021L30.7395 196.021L30.7398 196.021L30.7401 196.021L30.7405 196.021L30.7408 196.02L30.7411 196.02L30.7414 196.02L30.7443 196.019L30.7462 196.019C31.2939 195.854 31.8383 195.69 32.3761 195.521ZM60.1136 161.856C59.9972 162.075 59.8805 162.295 59.7613 162.515C60.6523 162.786 61.3817 163.354 60.8938 164.062C60.1932 165.071 60.8953 165.215 61.4762 165.324C61.5893 165.345 61.7077 165.357 61.8254 165.369C62.2311 165.409 62.6285 165.449 62.7739 165.865C63.0005 166.514 63.5136 166.824 64.0201 167.129C64.2382 167.26 64.455 167.391 64.6472 167.548C65.1646 167.97 66.0345 168.377 66.6023 168.231C67.5612 167.937 68.4431 167.437 69.1852 166.766C69.6341 166.384 69.9962 165.905 70.3593 165.424C70.5982 165.108 70.8376 164.791 71.1024 164.501C71.4377 164.133 71.7872 163.777 72.1368 163.42L72.1369 163.42L72.137 163.42L72.1371 163.42L72.1372 163.42L72.1373 163.419L72.1374 163.419L72.1375 163.419L72.1375 163.419L72.1376 163.419L72.1377 163.419C73.1305 162.406 74.124 161.393 74.7955 160.119C75.0901 159.559 75.4523 159.035 75.8143 158.512C76.4944 157.528 77.1742 156.544 77.4061 155.325C77.5479 154.115 78.083 152.984 78.9302 152.103C79.908 151.148 79.7386 150.438 78.8124 149.179C78.701 149.028 78.5883 148.839 78.4747 148.65C78.2077 148.204 77.9362 147.751 77.6683 147.751C76.9727 147.752 76.9566 147.348 76.9405 146.945C76.9256 146.574 76.9109 146.205 76.367 146.153C73.8199 147.339 71.6573 149.28 69.5063 151.211C69.2602 151.432 69.0142 151.653 68.7677 151.873C67.2339 153.24 65.83 154.751 64.4259 156.262L64.4258 156.262L64.4257 156.262L64.4256 156.262L64.4255 156.262L64.4255 156.262L64.4254 156.263L64.4253 156.263L64.4252 156.263L64.4251 156.263L64.425 156.263L64.4249 156.263L64.4248 156.263L64.4247 156.263L64.4247 156.263C63.7406 157 63.0565 157.736 62.3573 158.456C61.3881 159.454 60.7561 160.645 60.1136 161.856ZM76.8665 264.693C77.9895 261.801 80.1563 260.5 82.2758 259.227L82.3569 259.179C84.2424 258.034 86.2071 257.023 88.2363 256.153C88.6774 255.967 89.1129 255.753 89.5509 255.537C91.1228 254.762 92.7277 253.972 94.7491 254.418C94.0971 255.394 93.1112 255.833 92.0894 256.287C91.1591 256.701 90.199 257.128 89.434 257.986C90.9018 257.771 92.173 257.233 93.4941 256.675C94.5082 256.246 95.5517 255.806 96.736 255.488L95.8503 257.18C96.2983 257.25 96.7679 257.322 97.236 257.394L97.7519 259.803C97.6923 259.842 97.6281 259.883 97.5603 259.925C97.5071 259.959 97.4517 259.994 97.3945 260.029L97.3869 260.034C97.058 260.24 96.6702 260.482 96.305 260.754C94.321 262.228 94.3143 262.249 93.4579 264.823L93.4366 264.887C93.3257 265.182 93.1826 265.464 93.01 265.729C91.7665 267.785 90.355 269.663 88.1393 270.829C87.1456 271.373 86.0548 271.721 84.9276 271.851C84.6913 271.889 84.4744 272.004 84.3107 272.178C84.1716 272.345 83.9542 272.427 83.7386 272.394C83.5229 272.361 83.3409 272.217 83.2596 272.016C82.886 271.391 82.3253 270.969 81.7655 270.548C81.3129 270.208 80.8609 269.867 80.5089 269.421C80.1741 269.054 79.6958 268.849 79.1975 268.86C78.4619 268.769 77.4814 267.361 77.62 266.693C77.6489 266.555 77.7522 266.431 77.8558 266.307C78.0625 266.06 78.27 265.812 77.8877 265.447C77.5641 265.174 77.2229 264.922 76.8665 264.693ZM134.441 179.357L134.734 180.905C135.3 181.22 135.849 181.072 136.402 180.923C136.902 180.787 137.405 180.652 137.924 180.857C138.203 180.887 138.465 180.721 138.557 180.458C138.649 180.195 138.546 179.903 138.309 179.755C138.234 179.683 138.308 179.455 138.383 179.227L138.383 179.227C138.417 179.122 138.451 179.018 138.471 178.928C138.544 178.948 138.636 178.966 138.729 178.985L138.729 178.985C138.928 179.024 139.126 179.064 139.129 179.115C139.214 180.468 140.339 180.04 140.818 179.845C141.219 179.682 141.625 179.525 142.031 179.368L142.031 179.367C143.689 178.726 145.355 178.081 146.777 176.994L146.797 176.98C147.535 176.415 148.476 175.696 147.474 174.54C147.424 174.479 147.464 174.285 147.523 174.19C148.171 173.147 147.758 172.523 146.728 172.118C145.829 171.763 146.227 171.354 146.538 171.033L146.557 171.014L146.592 170.978L145.445 169.604L143.271 170.227C143.423 169.95 143.662 169.77 143.895 169.594C144.295 169.293 144.68 169.002 144.594 168.253L144.429 168.163L144.313 168.099C144.037 167.948 143.729 167.78 143.423 167.608C143.276 167.524 143.098 167.448 142.919 167.372C142.525 167.203 142.129 167.034 142.069 166.784C141.819 165.747 141.262 166.002 140.758 166.232C140.692 166.262 140.628 166.292 140.565 166.318C139.84 166.62 139.129 166.956 138.418 167.293L138.418 167.293L138.417 167.293L138.417 167.294L138.416 167.294L138.416 167.294L138.415 167.294L138.415 167.294L138.414 167.295L138.414 167.295L138.413 167.295L138.413 167.295L138.412 167.296C137.915 167.531 137.417 167.767 136.914 167.991C136.6 168.096 136.275 168.169 135.946 168.209L135.803 167.799C137.492 166.989 139.181 166.179 141.078 165.27C139.504 164.935 138.452 165.421 137.311 165.964C135.51 166.828 133.828 167.919 132.308 169.211C130.377 170.841 128.788 172.78 129.383 175.624C129.413 175.858 129.42 176.094 129.405 176.329L133.278 180.01L134.441 179.357ZM189.199 170.465L188.163 171.542L188.888 171.609C189.317 171.649 189.718 171.686 190.143 171.725C190.215 172.034 190.292 172.345 190.37 172.659L190.371 172.662L190.371 172.662C190.556 173.408 190.745 174.167 190.877 174.936C190.99 175.605 191.003 176.287 190.915 176.96C190.887 177.173 190.702 177.23 190.492 177.295C190.203 177.384 189.868 177.487 189.832 178.033C189.799 178.537 189.087 178.96 188.439 179.346L188.438 179.346C188.304 179.425 188.172 179.504 188.05 179.581C187.863 179.698 187.604 179.726 187.342 179.754C186.789 179.814 186.222 179.876 186.294 180.78C185.463 180.844 184.632 180.909 183.801 180.974C183.746 180.978 183.69 180.989 183.635 181C183.611 181.004 183.586 181.009 183.561 181.013L179.838 184.883C179.876 185.296 179.882 185.712 179.853 186.127C179.766 186.761 179.151 187.456 178.753 187.14C178.279 186.765 177.894 186.966 177.529 187.156C177.212 187.322 176.909 187.48 176.576 187.248C175.937 185.292 175.858 184.673 176.104 183.065C175.24 183.485 174.487 183.851 173.541 184.312C173.465 184.237 173.359 184.156 173.246 184.071C172.979 183.868 172.677 183.639 172.673 183.405C172.667 182.959 172.635 182.508 172.603 182.057L172.603 182.057C172.486 180.386 172.367 178.706 173.514 177.207C173.853 176.652 174.251 176.135 174.702 175.665C175.654 174.875 176.663 174.152 177.67 173.43C177.841 173.307 178.012 173.185 178.183 173.062C178.519 172.82 178.869 172.598 179.22 172.375C179.475 172.214 179.73 172.052 179.979 171.883C180.326 171.648 180.735 171.523 181.143 171.398C181.814 171.192 182.485 170.987 182.884 170.292C183.75 170.4 184.446 170.044 185.157 169.68L185.157 169.679C185.375 169.568 185.595 169.455 185.821 169.356C186.414 169.041 187.111 168.982 187.75 169.191C188.388 169.401 188.912 169.861 189.199 170.465ZM225.476 93.3871L225.423 91.0365C225.558 89.4964 225.335 87.9462 224.772 86.5054C224.534 85.8887 224.136 85.3528 223.735 84.8128C223.328 84.2639 222.917 83.7107 222.668 83.064C222.613 82.9179 222.242 82.8018 222.032 82.8216C221.383 82.8773 220.739 82.979 220.105 83.1259C218.923 83.409 218.001 84.1205 217.075 84.8343C216.797 85.0488 216.519 85.2635 216.233 85.4668C213.796 87.2029 211.984 89.2538 212.118 92.4663C212.143 92.7057 212.079 92.946 211.938 93.1419C211.288 93.7728 211.601 94.2633 211.912 94.7517C212.083 95.0186 212.253 95.2849 212.265 95.5731C213.367 96.2325 213.949 97.3162 214.517 98.3729C214.719 98.7476 214.918 99.1189 215.139 99.4666C215.888 100.65 216.657 100.974 217.711 100.695C217.921 100.64 218.132 100.587 218.345 100.534C220.005 100.118 221.7 99.6938 222.749 98.086C222.89 97.8709 223.091 97.6936 223.293 97.5158C223.717 97.1434 224.142 96.7693 224.018 96.0431C224.03 95.8204 224.157 95.6198 224.354 95.5129C225.547 95.2973 225.516 94.4726 225.484 93.6433C225.481 93.5577 225.478 93.4721 225.476 93.3871ZM101.057 89.7265L100.205 90.2921L99.2184 90.9465C99.5639 90.9848 99.8215 91.0142 100.025 91.0374C100.35 91.0745 100.537 91.0959 100.726 91.1125L100.73 91.1128C101.195 91.1536 101.447 91.1756 101.598 91.3104C101.776 91.469 101.816 91.7837 101.901 92.4689L101.902 92.4723C101.907 92.5128 101.909 92.5589 101.912 92.606L101.912 92.6064C101.921 92.7447 101.929 92.8917 101.998 92.9326C102.853 93.3958 103.255 94.3988 102.955 95.3199C102.715 96.3953 102.263 97.413 101.625 98.3143C99.0206 101.529 95.4759 103.464 91.7034 104.99C91.2628 105.169 90.7356 105.135 90.2117 105.101L90.2114 105.101C89.9706 105.085 89.7305 105.069 89.4998 105.075L89.5864 104.1C88.6691 104.184 87.9844 103.993 87.7425 102.93C87.5927 102.543 87.2601 102.255 86.8539 102.16C86.1946 102.111 86.1091 101.687 86.0253 101.271C85.9682 100.988 85.9118 100.709 85.6749 100.554C86.2057 100.206 86.0984 99.7423 85.9905 99.2758C85.8963 98.869 85.8016 98.4599 86.1287 98.1228C86.3651 97.8796 86.5814 97.6063 86.797 97.3339C87.1971 96.8286 87.5948 96.3262 88.1142 96.0236C89.8558 94.9504 91.7088 94.0671 93.641 93.3892C94.5119 93.1744 95.2582 92.6184 95.71 91.8479C96.3512 90.6125 97.3692 89.6102 98.6182 88.9845L98.6611 88.9637C99.7081 88.4561 99.7157 88.4524 101.057 89.7265ZM132.847 136.784C132.539 136.744 132.228 136.743 131.92 136.784C131.25 137.279 130.663 137.823 130.088 138.356L130.088 138.356L130.088 138.356L130.088 138.356L130.088 138.356L130.088 138.356L130.088 138.357C129.814 138.61 129.543 138.861 129.267 139.104C127.552 140.599 125.794 142.139 124.917 144.442C124.332 145.979 124.548 147.387 125.634 148.161C125.946 148.382 126.175 148.706 126.404 149.027C126.813 149.602 127.219 150.173 128.083 150.15C128.312 151.538 129.466 151.275 130.194 151.044C132.232 150.397 134.291 149.688 135.9 148.188C136.196 147.912 136.436 147.578 136.676 147.243L136.676 147.243C136.898 146.933 137.12 146.624 137.387 146.36C137.829 145.923 138.322 145.538 138.854 145.122L138.855 145.122L138.855 145.122C139.097 144.933 139.346 144.738 139.603 144.529L138.793 140.803C138.574 140.773 138.371 140.744 138.166 140.715L138.159 140.714L138.154 140.714L138.148 140.713L138.13 140.71L138.127 140.71L138.118 140.708C137.808 140.665 137.492 140.62 137.113 140.568L139.372 137.687C139.182 137.495 138.963 137.314 138.756 137.143L138.756 137.143C138.336 136.796 137.968 136.492 137.997 136.231C138.044 135.808 137.918 135.461 137.791 135.113C137.667 134.773 137.543 134.432 137.582 134.019C137.29 134.248 137.246 134.612 137.203 134.962C137.137 135.504 137.075 136.016 136.1 135.949L136.588 134.748C135.368 134.375 134.913 135.178 134.441 136.012C134.394 136.094 134.348 136.176 134.3 136.258C134.666 136.142 135.033 136.028 135.459 135.895L135.741 135.808C135.715 136.078 135.643 136.342 135.529 136.589C135.335 136.853 135.076 137.065 134.777 137.202C134.695 137.234 134.582 137.17 134.462 137.102C134.352 137.039 134.236 136.974 134.133 136.976C134.018 136.98 133.901 137.042 133.786 137.103C133.659 137.17 133.535 137.235 133.419 137.22C133.314 137.207 133.222 137.106 133.129 137.004C133.04 136.906 132.95 136.807 132.847 136.784ZM99.6315 179.486L99.227 180.757C100.393 180.782 101.091 180.142 101.798 179.494C102.4 178.943 103.008 178.385 103.917 178.223C103.801 178.602 103.643 178.967 103.445 179.311C103.047 179.779 102.625 180.226 102.18 180.65C102.955 180.582 103.681 180.242 104.228 179.691C105.158 180.421 105.567 180.742 105.753 181.162C105.899 181.49 105.909 181.88 105.927 182.574C105.634 182.844 105.312 183.103 104.987 183.365L104.987 183.365C104.241 183.966 103.48 184.578 103.02 185.365C102.577 186.124 101.928 186.566 101.284 187.004C100.87 187.287 100.458 187.568 100.103 187.931C99.1545 188.78 98.0831 189.484 96.9248 190.018C96.3073 190.39 95.5931 190.574 94.8715 190.545C94.0451 190.433 92.8263 190.111 92.579 189.537C92.2952 188.878 91.8821 188.79 91.4584 188.7C91.2744 188.66 91.0885 188.621 90.9102 188.534C90.1053 188.141 89.3186 187.596 89.1247 186.569C89.0836 186.351 88.9943 186.12 88.9064 185.891L88.9064 185.891C88.7522 185.491 88.6021 185.101 88.7233 184.817C89.1539 183.699 89.7971 182.673 90.6179 181.796C92.217 180.277 93.9129 178.861 95.6951 177.558C95.9882 177.338 96.4355 177.321 96.9617 177.301C97.2292 177.291 97.5171 177.28 97.8156 177.242L97.0601 178.217C97.9258 178.072 98.4253 178.521 98.8968 178.944C99.1343 179.158 99.3648 179.365 99.6315 179.486ZM6.08768 166.821L5.36849 168.196C6.22709 168.036 7.07377 167.818 7.90274 167.544C8.23877 167.403 8.70489 166.918 8.66489 166.658C8.57708 166.086 8.88898 165.732 9.17962 165.402C9.36745 165.189 9.54639 164.986 9.60284 164.741C9.74284 164.12 10.1164 163.762 10.4877 163.407L10.4879 163.407C10.633 163.268 10.7777 163.129 10.908 162.975C11.1723 162.663 11.485 162.379 11.7959 162.095C12.3227 161.615 12.8447 161.14 13.1181 160.545C13.3905 159.953 13.7991 159.521 14.2027 159.095L14.2028 159.095C14.4636 158.819 14.7222 158.546 14.9407 158.233C15.3264 157.68 15.7019 157.12 16.0763 156.562L16.2748 156.266C16.3744 156.118 16.474 155.97 16.5738 155.822L16.5123 153.065C15.5893 153.359 15.5777 152.875 15.5659 152.388C15.5568 152.007 15.5476 151.623 15.1026 151.606C14.751 151.585 14.5261 151.849 14.299 152.117C13.9827 152.489 13.6622 152.866 12.9898 152.482C13.1037 152.344 13.2324 152.211 13.36 152.08L13.3603 152.08C13.8664 151.558 14.3568 151.053 13.8523 150.273C12.3738 150.377 11.4893 151.345 10.604 152.314L10.4767 152.454C10.3158 152.651 10.1376 152.835 9.94408 153.001C7.69961 154.682 5.58408 156.526 3.61503 158.519C3.38644 158.753 3.102 158.932 2.81719 159.111C2.55303 159.277 2.28857 159.444 2.06807 159.654L1.9767 159.741C1.16419 160.516 0.323665 161.317 0.536749 162.622C1.08446 162.677 1.49541 162.394 1.89846 162.116C2.38475 161.78 2.85954 161.453 3.54909 161.739L1.0123 164.374L1.8308 165.707L4.59503 164.451C3.88321 166.156 3.99459 166.293 6.08768 166.821ZM176.331 146.878C176.318 147.178 176.364 147.445 176.408 147.699C176.493 148.188 176.569 148.628 176.198 149.163L175.82 148.147C175.543 148.235 175.266 148.325 174.99 148.416C174.247 148.658 173.504 148.901 172.751 149.096C172.486 149.166 171.956 149.038 171.873 148.855C171.606 148.262 171.114 147.919 170.626 147.579C170.281 147.339 169.939 147.101 169.681 146.777C169.423 146.377 169.273 145.919 169.242 145.446C169.227 145.331 169.306 145.203 169.385 145.075C169.463 144.948 169.541 144.822 169.527 144.708C169.424 144.407 169.266 144.127 169.061 143.882L169.173 143.848C170.609 143.411 170.683 143.389 171.221 141.698C171.426 141.054 171.895 140.718 172.37 140.379C172.66 140.171 172.953 139.962 173.189 139.68L172.716 139.472L172.422 139.342L172.109 139.205C172.195 139.12 172.278 139.017 172.359 138.915C172.529 138.705 172.69 138.503 172.855 138.5C175.907 138.446 175.977 138.442 177.774 137.016C176.934 136.563 176.322 136.931 175.675 137.32C175.246 137.578 174.801 137.846 174.264 137.891C174.28 137.769 174.285 137.629 174.29 137.492C174.3 137.21 174.309 136.944 174.416 136.898C174.649 136.796 174.88 136.688 175.11 136.579L175.111 136.579C176.441 135.952 177.759 135.331 179.405 136.159C179.481 136.198 179.552 136.232 179.618 136.264C180.079 136.485 180.321 136.601 180.345 137.22C180.41 137.687 180.597 138.13 180.887 138.505C181.357 139.208 181.855 139.893 182.376 140.609C182.592 140.905 182.811 141.207 183.034 141.517L182.413 141.949C182.169 142.314 182.318 142.677 182.446 142.988C182.621 143.413 182.756 143.741 181.79 143.844C181.607 143.864 181.667 144.029 181.738 144.227C181.851 144.541 181.993 144.937 181.229 144.954C180.895 144.962 180.57 145.391 180.258 145.805C180.12 145.988 179.984 146.168 179.851 146.306L179.642 146.232L179.497 146.18L179.175 146.065L179.156 146.059L178.897 145.966L178.644 145.876C178.559 146.003 178.474 146.13 178.39 146.257L178.905 146.512L178.912 146.516L179.263 146.69L179.786 146.948L179.257 147.274L178.465 147.762L177.99 148.055C177.478 147.692 176.904 147.285 176.331 146.878ZM99.8483 61.3874L97.8949 62.9988C98.1033 63.2931 98.3447 63.563 98.6144 63.8032C98.9003 63.9325 99.1936 64.0452 99.4927 64.1406L99.5379 64.1605L99.5381 64.1606C99.8045 64.2779 100.228 64.4646 100.212 64.5389C100.082 65.1275 100.446 65.5211 100.809 65.9137C101.198 66.3345 101.586 66.7542 101.364 67.4116C101.562 67.4967 101.765 67.5712 101.971 67.6348C102.199 67.1237 102.569 67.2106 102.934 67.2966C103.127 67.3418 103.318 67.3867 103.486 67.3444C104.213 67.1625 104.788 66.7613 105.356 66.3647C105.758 66.0842 106.156 65.8061 106.603 65.6093C108.54 64.7703 110.257 63.499 111.621 61.894L110.769 56.7053L108.274 56.7609C108.408 56.3601 108.717 56.0765 109.017 55.8015C109.447 55.4068 109.858 55.0298 109.703 54.3491C108.287 54.075 106.928 54.1513 105.861 54.9486C104.979 55.6083 104.048 56.1916 103.118 56.7743L103.118 56.7744L103.118 56.7745C102.221 57.3364 101.326 57.8977 100.475 58.5263C99.6302 59.0879 98.9499 59.8623 98.5041 60.7704L99.8483 61.3874ZM68.167 120.086L65.8448 121.146L67.1025 121.589C67.0968 121.598 67.0912 121.609 67.0857 121.619C67.0803 121.63 67.0749 121.641 67.0696 121.653C67.0603 121.673 67.0512 121.693 67.0421 121.714C67.0013 121.808 66.961 121.9 66.8996 121.918C66.0412 122.158 65.2599 122.615 64.6322 123.244C64.215 123.618 63.7478 123.934 63.2439 124.182C62.3752 124.594 61.7702 125.409 61.6307 126.355L61.8209 126.443L61.8301 126.447L62.0548 126.551C62.2316 126.633 62.3844 126.703 62.4765 126.745L61.4565 128.166C61.3874 128.167 61.3268 128.17 61.2741 128.173C61.2317 128.176 61.1943 128.179 61.1616 128.181L61.1606 128.181L61.1595 128.181C61.0466 128.19 60.9902 128.194 60.9744 128.171C60.728 127.813 60.4922 127.447 60.2685 127.1L60.1662 126.941L60.0926 126.827L59.1672 127.013C58.7711 127.093 58.343 127.179 57.8185 127.284L58.6512 125.483C57.9689 125.165 57.284 124.846 56.547 124.502L56.3781 123.273L55.2397 123.299C54.2467 122.042 54.3532 120.991 55.346 119.86C55.7562 119.392 56.1412 118.903 56.5316 118.407L56.5318 118.407C57.1707 117.595 57.8238 116.765 58.6249 115.982L59.7021 117.526C60.7444 117.206 61.7067 116.67 62.5255 115.953C63.1438 115.433 63.8957 115.07 64.6349 114.713L64.6354 114.713C64.9562 114.558 65.2747 114.404 65.5787 114.239C66.3238 114.813 66.0594 115.311 65.7807 115.836C65.707 115.975 65.6322 116.115 65.5749 116.26C65.6584 116.267 65.7438 116.284 65.8274 116.301C66.0034 116.335 66.1714 116.368 66.2959 116.31C67.4408 115.774 68.016 115.982 68.0906 117.063C68.1384 117.766 68.146 118.473 68.1536 119.169L68.1536 119.169L68.1536 119.169L68.1536 119.169C68.1569 119.477 68.1602 119.783 68.167 120.086ZM54.645 49.0948L56.4197 47.8443C56.4079 47.8276 56.3961 47.8109 56.3845 47.7943C56.3756 47.7815 56.3667 47.7687 56.3579 47.7559L56.3069 47.6819C55.9911 47.2227 55.7131 46.8185 54.9621 46.7632C53.253 46.6363 51.8291 47.3397 50.41 48.0408C50.0448 48.2212 49.68 48.4014 49.3106 48.5674C48.5698 48.9001 48.3538 50.1806 48.5992 51.1868C48.6875 51.5911 48.7236 52.0049 48.7066 52.4183C48.6244 53.4536 49.3787 54.3688 50.4161 54.4925C51.1476 54.6351 51.6388 54.8008 51.8717 55.5528C52.0302 56.2291 52.7013 56.6574 53.3861 56.5193C53.4358 56.5147 53.4857 56.5096 53.5358 56.5043L53.5978 56.4976C54.1755 56.4351 54.77 56.3709 55.2546 56.948C55.5607 57.1014 55.9242 57.0904 56.2204 56.9186C56.3539 56.8205 56.4317 56.6151 56.5046 56.4227C56.5816 56.2198 56.653 56.0315 56.7783 55.9989C56.9351 55.9583 57.1213 56.0652 57.3145 56.176C57.4918 56.2778 57.6751 56.3829 57.847 56.3806C59.0482 56.3653 59.658 55.4633 59.9982 54.5202C60.0899 54.2677 60.0904 53.9901 60.0909 53.7056C60.0916 53.2765 60.0924 52.832 60.4061 52.4353C60.4348 52.3989 60.2349 52.1935 59.9995 51.9515C59.8119 51.7588 59.6019 51.543 59.4668 51.3708C59.3434 51.15 59.2498 50.914 59.1882 50.6689L57.0948 50.7156C57.7375 50.3903 58.0609 50.2269 58.3267 50.0929L58.2936 48.6121C58.0132 48.6817 57.7422 48.7505 57.4779 48.8176L57.4757 48.8181C56.7611 48.9995 56.0953 49.1684 55.4233 49.31C55.2999 49.3362 55.1592 49.2818 54.9778 49.2118C54.8799 49.174 54.7702 49.1316 54.645 49.0948ZM104.335 128.471L103.761 130.591C104.594 130.917 105.389 131.001 106.11 130.258C106.606 130.776 106.38 131.205 106.146 131.651C105.985 131.957 105.82 132.27 105.882 132.625L107.259 132.848C107.636 133.184 107.484 133.516 107.323 133.866C107.164 134.212 106.997 134.575 107.325 134.978C107.733 135.48 107.381 135.769 107.005 136.077C106.757 136.28 106.499 136.492 106.44 136.779C106.275 137.22 105.979 137.6 105.592 137.87C105.107 138.281 104.533 138.553 103.956 138.826C103.155 139.205 102.348 139.587 101.766 140.349C101.606 140.559 101.175 140.564 100.683 140.569C100.437 140.572 100.176 140.575 99.9258 140.604C100.271 139.863 99.8395 139.493 99.4056 139.121C98.9936 138.768 98.5795 138.413 98.8275 137.737C98.6172 137.614 98.3578 137.567 98.0928 137.519C97.4783 137.408 96.8343 137.291 96.7059 136.213L98.0334 135.399C97.7492 135.272 97.5283 135.173 97.3426 135.09C97.1233 134.992 96.953 134.916 96.7854 134.841L96.7273 134.814C96.512 133.991 97.1796 133.577 97.6512 133.284L97.7161 133.244C99.2508 132.296 100.517 130.974 101.395 129.405C101.96 128.416 102.903 127.86 104.335 128.471ZM169.506 111.389L172.127 114.564C172.382 114.499 172.666 114.453 172.961 114.404C173.651 114.292 174.397 114.171 174.96 113.785C176.418 112.829 177.717 111.655 178.811 110.303C180.031 108.716 181.024 106.853 179.141 104.94C179.02 104.817 178.98 104.616 178.934 104.39C178.91 104.273 178.884 104.148 178.846 104.024C178.617 104.074 178.387 104.101 178.168 104.128C177.72 104.182 177.317 104.23 177.071 104.451C176.905 104.6 176.742 104.751 176.579 104.903C175.61 105.804 174.655 106.692 173.212 106.834C172.604 107.615 171.756 108.028 170.914 108.438C170.408 108.683 169.905 108.928 169.458 109.25L169.506 111.389Z" fill="#F5D3AB"/>
</svg>
