<svg width="192" height="330" viewBox="0 0 192 330" fill="none" xmlns="http://www.w3.org/2000/svg">
<path fill-rule="evenodd" clip-rule="evenodd" d="M239.166 347.371C237.032 347.88 234.898 348.388 232.913 349.416C235.874 348.85 238.766 347.966 241.537 346.778C240.752 346.993 239.96 347.182 239.167 347.371L239.166 347.371ZM232.857 349.438L231.862 350.012C238.734 348.575 245.41 346.325 251.751 343.31C260.698 338.959 268.957 333.313 276.261 326.553C283.401 319.921 290.065 312.793 296.204 305.223C305.251 294.242 314.431 283.385 324.615 273.415C332.948 265.15 342.829 258.614 353.692 254.182C358.013 252.432 362.357 250.756 366.911 249.3C366.476 248.914 366.121 249.033 365.721 249.167C365.417 249.269 365.086 249.38 364.672 249.284C365.107 249.151 365.528 248.978 365.925 248.814L365.926 248.813L365.926 248.813C366.752 248.472 367.48 248.172 368.037 248.365C368.953 248.772 370.017 248.647 370.813 248.041C372.427 246.43 374.45 246.04 376.463 245.652L376.464 245.652L376.464 245.652L376.464 245.652L376.465 245.652L376.465 245.652L376.465 245.652L376.465 245.652L376.466 245.652L376.466 245.652C377.382 245.475 378.296 245.299 379.169 245.008C380.238 244.652 381.37 244.562 382.51 244.472C383.731 244.375 384.962 244.278 386.136 243.851C387.072 243.511 388.028 243.243 388.986 242.975C390.98 242.416 392.977 241.857 394.791 240.64C395.991 239.837 397.804 239.746 399.471 239.693C401.013 239.644 402.899 239.21 403.966 238.222C405.074 237.196 406.389 236.811 407.7 236.427C408.514 236.189 409.326 235.952 410.087 235.562C414.971 233.12 419.705 230.388 424.263 227.381C430.67 222.972 436.595 217.902 441.943 212.253C450.922 202.957 455.082 191.572 456.357 178.972C457.634 166.35 454.42 155.088 445.858 145.502L445.688 145.312C441.236 140.326 436.785 135.341 431.907 130.768C428.769 127.778 425.255 125.211 421.453 123.133C418.296 121.438 415.85 118.938 413.406 116.441C413.212 116.243 413.018 116.044 412.823 115.846C405.853 108.749 398.267 102.471 389.375 97.9135C380.397 93.3135 370.77 90.9423 360.791 89.9892C347.522 88.721 334.492 90.4721 321.498 93.0813L320.731 93.2353C302.292 96.9396 283.835 100.648 264.916 100.908C251.397 101.094 237.997 100.153 224.923 96.337C219.139 94.6484 213.971 91.7482 208.899 88.5634C205.688 86.5476 202.521 84.4616 199.354 82.3757C193.703 78.6532 188.051 74.9307 182.151 71.6068C175.537 67.8815 168.812 64.3556 161.524 62.1086C148.753 58.1702 135.708 55.8904 122.326 56.9642C107.986 58.115 94.349 61.6869 82.5203 70.4121C71.2629 78.7164 63.2369 89.1853 61.1484 103.405C60.0087 111.182 61.2219 118.832 63.4482 126.294C65.4579 133.031 67.798 139.658 70.1383 146.286C72.5577 153.137 74.9772 159.989 77.0323 166.964C77.5048 168.568 77.9881 170.168 78.4715 171.769C80.7905 179.448 83.1089 187.125 84.2167 195.112C85.8546 206.903 83.8093 218.16 79.3634 229.093C77.4862 233.717 75.4744 238.283 73.4626 242.849L73.4624 242.849C72.2773 245.539 71.0923 248.228 69.9347 250.93C66.1898 259.67 62.9859 268.584 61.6106 278.063C59.1938 294.719 64.6827 308.609 76.4024 320.293C83.2687 327.044 91.1139 332.719 99.6724 337.124C102.766 338.751 105.949 340.165 109.123 341.575L109.151 341.588L109.154 341.589L109.156 341.59L109.159 341.591L109.161 341.592L109.164 341.593L109.166 341.595L109.168 341.596L109.171 341.597C109.709 341.836 110.246 342.074 110.782 342.314C114.189 343.838 117.738 345.018 121.377 345.837C122.888 346.176 124.357 346.682 125.832 347.189C127.196 347.658 128.565 348.128 129.975 348.471C140.602 351.093 151.392 353.002 162.272 354.185C168.799 354.874 175.346 355.088 181.885 355.252C187.115 355.383 192.359 355.206 197.613 354.816C198.891 354.721 200.173 354.636 201.457 354.551L201.466 354.55C204.53 354.347 207.6 354.143 210.645 353.803C211.85 353.669 213.02 353.308 214.199 352.945C215.289 352.609 216.386 352.27 217.526 352.106C222.262 351.502 226.946 350.549 231.54 349.255C231.997 349.117 232.468 349.018 232.857 349.438ZM96.5302 72.0867L96.5188 71.7931C97.0948 71.5867 97.6675 71.3684 98.2402 71.15C99.4967 70.671 100.753 70.1919 102.044 69.8396C102.516 69.711 102.988 69.5811 103.459 69.4513C109.105 67.8963 114.733 66.3464 120.781 67.0005C121.555 67.0844 122.367 66.9778 123.199 66.8686C124.214 66.7353 125.258 66.5983 126.294 66.7999C127.574 67.0495 128.856 67.015 130.15 66.9802C131.464 66.9449 132.79 66.9092 134.14 67.1703C138.27 67.9685 142.463 68.6501 146.658 69.1154C148.521 69.3221 150.285 69.8481 152.045 70.373L152.045 70.3732C152.912 70.6316 153.777 70.8898 154.654 71.1096C156.724 71.7469 158.757 72.498 160.744 73.3596C164.517 74.7396 168.167 76.4358 171.656 78.4301C175.163 80.4694 178.605 82.6638 182.008 84.8996C183.333 85.7706 184.646 86.6646 185.958 87.5587L185.959 87.5595C187.97 88.9293 189.981 90.2994 192.042 91.5873C196.057 94.0572 199.909 96.7846 203.572 99.7525C204.522 100.534 205.578 101.081 206.634 101.628C207.594 102.125 208.554 102.623 209.437 103.297C210.988 104.602 212.689 105.719 214.503 106.622C217.84 108.115 221.282 109.355 224.803 110.334C236.599 113.521 248.653 114.528 260.815 114.392C261.392 114.385 261.97 114.385 262.548 114.385L262.549 114.385L262.55 114.385L262.551 114.385L262.551 114.385L262.552 114.385L262.553 114.385C265.731 114.383 268.925 114.382 272.022 113.35C273.145 112.906 274.346 112.694 275.554 112.726C277.825 112.92 280.112 112.759 282.333 112.247C284.913 111.683 287.52 111.31 290.129 110.938C292.257 110.634 294.386 110.33 296.503 109.921C304.131 108.451 311.741 106.913 319.262 104.995C321.359 104.461 323.481 104.064 325.604 103.666L325.604 103.666C328.114 103.196 330.625 102.726 333.099 102.028C335.185 101.44 337.419 101.364 339.649 101.288L339.65 101.288L339.65 101.288L339.65 101.288L339.65 101.288L339.65 101.288L339.651 101.288L339.651 101.288L339.651 101.288L339.653 101.288C340.542 101.257 341.431 101.227 342.31 101.164C356.885 100.12 370.982 101.882 384.054 108.854C384.816 109.261 385.604 109.346 386.381 109.43C387.292 109.529 388.187 109.627 389.007 110.239C395.838 115.347 402.738 120.36 409.848 125.082C414.739 128.33 418.744 132.541 422.749 136.753C424.863 138.976 426.977 141.199 429.222 143.281C429.297 143.351 429.368 143.417 429.436 143.48C430.543 144.512 430.603 144.567 432.509 144.8C432.658 144.818 432.792 144.996 432.921 145.167C432.97 145.231 433.017 145.294 433.065 145.348C434.216 146.645 435.404 147.909 436.591 149.174L436.592 149.174C439.021 151.76 441.449 154.346 443.563 157.205C443.885 157.641 444.213 158.074 444.542 158.508C446.222 160.721 447.908 162.943 448.774 165.64C452.375 176.871 450.462 187.328 444.084 197.036C440.488 202.509 435.798 207.029 430.903 211.327C420.882 220.179 409.099 226.803 396.332 230.763C391.184 232.37 385.994 233.83 380.804 235.29L380.803 235.29L380.803 235.29L380.802 235.29L380.802 235.29L380.802 235.29L380.802 235.29L380.802 235.29L380.801 235.29L380.801 235.291L380.801 235.291C373.045 237.472 365.288 239.654 357.668 242.326C345.223 246.586 333.757 253.298 323.948 262.066C312.077 272.734 301.731 284.813 291.483 296.988C284.455 305.335 277.143 313.417 268.711 320.388C256.85 330.192 243.275 336.391 228.279 339.689C219.23 341.697 210.053 343.08 200.814 343.828C175.487 345.835 150.401 344.226 125.636 338.248C114.342 335.521 103.509 331.69 93.6729 325.352C87.0417 321.076 80.7676 316.385 75.7322 310.217C72.778 306.598 70.4042 302.68 69.6927 297.965C68.8106 292.188 68.9765 286.3 70.1824 280.584C72.3633 270.204 76.6438 260.605 80.9257 251.003C81.4464 249.835 81.9672 248.667 82.4842 247.498C87.1602 236.921 91.6505 226.324 92.5266 214.512C93.0829 207.772 92.6704 200.987 91.3018 194.362C87.823 178.047 82.0308 162.454 76.2411 146.867L76.241 146.867L76.2409 146.866L76.2408 146.866L76.2408 146.866L76.2407 146.865L76.2406 146.865L76.2405 146.865L76.2404 146.865L76.2399 146.863L75.9267 146.02L75.556 145.022C74.7735 142.913 73.9389 140.824 73.1043 138.734C70.9755 133.404 68.8469 128.074 67.5815 122.437C66.4011 117.177 65.7869 111.888 66.7127 106.517C68.4764 97.059 73.4883 88.5185 80.8807 82.3741C81.1057 82.2242 81.3001 82.0328 81.4537 81.8101C82.7813 79.3439 85.1173 78.2512 87.458 77.1564C87.6905 77.0476 87.9231 76.9388 88.1547 76.8286C88.3161 76.7518 88.4932 76.6793 88.6729 76.6057C89.2337 76.376 89.8202 76.1359 90.0352 75.7197C90.5975 74.6316 91.5898 74.3354 92.6008 74.0336C93.4205 73.789 94.2525 73.5406 94.8774 72.8636C95.2172 72.4958 95.9527 72.3382 96.7516 72.1669C97.3964 72.0288 98.0825 71.8817 98.635 71.6082L96.5302 72.0867ZM359.979 243.606C352.874 245.953 346.076 249.145 339.731 253.114C347.198 249.185 355 245.93 363.045 243.39C369.858 241.159 376.761 239.241 383.664 237.323L383.665 237.322C387.027 236.388 390.389 235.454 393.741 234.483C397.034 233.593 400.243 232.416 403.33 230.965C402.307 230.578 401.56 231.005 400.834 231.42C400.479 231.623 400.13 231.823 399.756 231.923C397.348 232.572 394.954 233.274 392.56 233.977C390.302 234.64 388.043 235.303 385.774 235.92C377.113 238.276 368.482 240.729 359.979 243.606ZM99.5637 63.8927C91.862 67.1015 84.6488 71.3766 78.1351 76.5928C84.0956 70.6212 91.466 66.253 99.5637 63.8927ZM262.828 104.326C253.23 104.967 243.589 104.17 234.224 101.962C243.716 103.279 253.26 103.939 262.828 104.326ZM369.978 94.3124C378.399 95.9995 386.538 98.426 393.54 103.688C386.069 99.6715 378.163 96.5255 369.978 94.3124ZM259.209 330.089C252.123 333.916 245.036 337.742 237.188 339.892C246.008 337.987 254.317 334.213 261.557 328.825C260.774 329.245 259.992 329.667 259.209 330.089ZM110.943 60.3515C110.838 60.6084 110.77 60.7968 110.722 60.9304L110.722 60.9305C110.654 61.121 110.625 61.2 110.584 61.2075C107.513 61.6913 104.502 62.5 101.601 63.6203C101.483 63.6903 101.341 63.7086 101.209 63.6709C101.077 63.6331 100.967 63.5426 100.903 63.4207C100.701 62.9971 101.014 62.7719 101.337 62.6915C103.749 62.0928 106.165 61.5082 108.736 60.886L108.736 60.8859L108.739 60.8853L108.762 60.8795C109.476 60.7068 110.202 60.5311 110.943 60.3515ZM236.043 111.485C232.362 111.314 228.729 110.575 225.273 109.294L236.043 111.485ZM377.225 244.235C373.98 245.893 372.248 246.075 371.172 244.64C372.522 245.827 373.557 245.32 374.641 244.789C375.43 244.402 376.245 244.003 377.225 244.235ZM384.142 243.8L384.26 244.029L391.88 241.712L391.807 241.47L384.142 243.8Z" fill="#80C7C3"/>
</svg>
