<svg width="454" height="263" viewBox="0 0 454 263" fill="none" xmlns="http://www.w3.org/2000/svg">
<path d="M45.9319 82.1879L31.7548 28.7619C31.1373 26.4352 30.9491 24.2819 28.4854 24.7441C26.7375 25.0163 21.3443 26.3516 20.7526 27.3708C20.4239 27.937 20.5774 29.2373 21.1711 31.4746C21.5565 33.2882 22.269 35.9729 23.1951 39.463L25.3086 47.4277C25.9973 50.0229 26.9124 52.7497 24.2989 53.7305C22.0672 54.7059 18.935 55.5371 17.5999 54.8377C16.3543 54.1145 16.0583 52.2772 15.2984 49.4135L11.3564 34.558C10.6439 31.8733 10.4557 29.72 7.99197 30.1822C6.24415 30.4544 0.850951 31.7898 0.169768 32.8326C-0.158949 33.3988 -0.00546956 34.6992 0.588211 36.9365L14.5753 89.6465C15.4302 92.8682 15.739 94.0316 16.5554 94.5813C17.4613 95.1072 18.9589 94.614 22.0016 93.8066C26.3866 92.643 26.6496 92.1901 25.5335 87.984L21.2115 71.6967C20.5465 69.1909 19.6606 66.9354 22.2084 66.0678C24.7561 65.2001 28.5092 63.821 29.8901 66.1368C30.396 66.9604 30.818 68.1896 31.2217 69.7109L35.4432 85.2586C36.0844 87.6748 36.3383 89.7149 38.6231 89.3002C39.4523 89.1759 40.6156 88.8672 42.137 88.4635C46.9695 87.1811 47.1905 86.9309 45.9319 82.1879Z" fill="white"/>
<path d="M85.7242 73.1155C85.4807 72.4098 71.0421 35.8074 65.3334 21.3037C64.7559 19.9115 64.0495 18.3572 63.2816 17.8568C62.8619 17.6615 62.0989 17.6331 61.1739 17.7336L52.9298 19.4725C50.0307 20.084 49.4206 20.7804 49.5076 23.8847C49.7433 29.0394 51.2984 68.2646 51.7229 81.0441C51.9146 83.7478 51.6817 85.784 54.2375 85.3396C56.1591 85.0289 58.5146 84.5321 61.3039 83.8492C62.5722 83.5816 63.1632 82.7946 63.1484 81.3784C62.9941 77.0581 62.9312 74.5165 62.8689 73.7727C62.4379 69.0377 63.1245 68.7036 67.8354 67.71C67.8354 67.71 68.1072 67.6527 68.5793 67.6477C71.7692 67.0695 72.8676 71.3798 73.1493 72.2667C73.4833 72.9532 73.8032 74.0212 74.271 75.342C75.2449 78.1646 75.6221 79.5044 76.5903 80.0571C77.0291 80.3431 77.6109 80.4096 78.536 80.3091C79.2607 80.1563 85.7503 79.0714 86.3937 78.084C86.9847 77.297 86.7313 75.6472 85.7242 73.1155ZM67.297 56.1847C67.3642 57.4006 62.31 58.5613 62.0234 57.2024C61.966 56.9306 61.8705 56.4776 61.8655 56.0055C61.3348 52.1432 61.286 49.2201 61.5571 47.3651C61.7857 46.6545 62.7058 46.0819 63.4596 46.9638C63.846 47.45 64.1227 47.8648 64.2898 48.2081C64.3471 48.4799 66.3564 53.0712 66.8815 54.6637C67.1441 55.4599 67.2587 56.0035 67.297 56.1847Z" fill="white"/>
<path d="M114.872 12.7015C114.186 8.40421 114.003 8.43339 109.706 9.1192L87.7624 12.6212C85.6595 12.9568 84.5331 12.9491 83.9038 13.7058C83.6733 14.0239 83.4865 14.6163 83.6033 15.3477C83.8475 17.4652 84.1831 19.5681 84.5809 21.4736C84.9642 23.2876 85.6772 23.6426 87.5204 23.4422C87.9007 23.4753 88.6321 23.3585 89.6379 23.198C91.4665 22.9062 93.2951 22.6144 94.3699 23.4742C95.3387 24.2572 95.5284 25.4458 96.0245 28.5544L102.751 70.7041C103.189 73.447 103.174 75.6997 105.565 75.4118C107.774 75.153 110.06 74.7882 112.423 74.3174C114.588 73.7843 113.978 71.7252 113.453 68.4337L106.959 27.7469C106.39 24.1811 106.051 22.6414 106.987 21.4605C107.909 20.1882 109.844 19.9732 111.673 19.6814C113.318 19.4188 114.599 19.2145 115.228 18.4577C115.444 18.0482 115.539 17.4705 115.408 16.6476C115.382 15.9015 115.164 14.5301 114.872 12.7015Z" fill="white"/>
<path d="M156.491 3.99975C155.98 3.59059 153.393 3.78401 151.276 4.01847L148.331 4.34469C147.421 4.53865 146.89 4.78387 146.562 5.19275C145.816 6.02069 145.774 7.32944 145.559 10.4274C144.839 22.4309 143.926 31.8475 143.68 33.831C143.516 34.8738 143.178 35.1907 142.81 35.2315C142.442 35.2723 141.951 35.0471 141.676 34.2393C141.001 32.3578 134.587 12.2949 133.198 8.1637C132.677 6.8241 131.869 6.26147 130.581 6.40419C129.098 6.47528 127.81 6.618 126.613 6.75052C125.417 6.88305 124.313 7.00538 123.403 7.19934C121.849 7.46467 121.552 8.14962 121.766 9.24373C121.848 9.97993 122.236 10.9616 122.542 12.0455C126.782 24.2449 139.267 52.8576 139.593 55.8024C139.848 58.103 138.896 59.6057 136.872 59.83C135.675 59.9625 135.491 59.9829 134.826 60.7086C134.581 61.0153 134.366 61.598 134.448 62.3342C134.56 63.3465 134.59 64.461 134.702 65.4733C134.814 66.4855 135.019 67.4876 135.131 68.4999C135.427 70.3302 136.05 70.9132 137.891 70.7093C150.498 69.3127 151.062 63.4746 153.146 40.2347C155.145 24.6428 157.123 9.7053 157.133 8.95891C157.287 7.82403 157.369 6.88338 157.288 6.14719C157.257 5.03269 156.992 4.31688 156.491 3.99975Z" fill="white"/>
<path d="M199.632 14.0187C198.038 2.89092 188.375 1.05786 182.829 1.38985L172.201 2.02616C167.58 2.30282 167.493 2.40077 167.764 6.92948L171.106 62.7527C171.239 64.9708 171.176 67.0152 173.405 67.0672C176.281 67.0805 180.815 66.9018 181.597 66.0202C181.945 65.6284 182.156 64.5027 182.056 62.8391L181.187 48.3288C181.01 45.3713 180.415 43.1808 183.536 42.623C183.992 42.5029 185.373 42.3275 187.499 42.2002C189.157 42.0082 190.44 41.7459 191.342 41.3209C197.032 38.7541 200.603 33.3461 200.51 27.1372L200.139 20.9449C199.879 16.601 199.741 14.2904 199.632 14.0187ZM189.967 26.0988C189.633 29.8289 186.445 32.3387 182.899 31.9944C181.219 31.8167 180.332 30.9423 180.151 29.4691L179.714 22.1677L179.621 22.1732C179.162 14.5022 178.018 12.4373 182.939 12.5137C189.811 12.6588 190.422 19.7643 189.967 26.0988Z" fill="white"/>
<path d="M244.452 59.1552C244.354 58.4152 237.474 19.6739 234.761 4.32522C234.471 2.84605 234.088 1.18243 233.435 0.539453C233.062 0.264616 232.32 0.0852831 231.393 0L222.968 0.0664375C220.005 0.0898001 219.269 0.651155 218.738 3.71084C217.945 8.8096 211.676 47.562 209.553 60.1711C209.204 62.859 208.572 64.8084 211.165 64.8805C213.11 64.9578 215.517 64.9388 218.386 64.8236C219.683 64.8134 220.418 64.1594 220.685 62.7684C221.392 58.5037 221.835 56.0002 221.922 55.2588C222.44 50.5326 223.179 50.3416 227.994 50.3036C227.994 50.3036 228.272 50.3015 228.735 50.3904C231.976 50.4574 232.197 54.9 232.297 55.8252C232.488 56.5644 232.589 57.6747 232.785 59.062C233.179 62.0218 233.282 63.4098 234.121 64.144C234.495 64.5114 235.052 64.6922 235.978 64.7774C236.719 64.7716 243.295 64.9975 244.121 64.1577C244.857 63.5038 244.936 61.8365 244.452 59.1552ZM229.756 38.9011C229.58 40.1061 224.396 40.2396 224.385 38.8508C224.383 38.5731 224.379 38.1102 224.468 37.6465C224.715 33.7557 225.248 30.8812 225.882 29.117C226.248 28.466 227.263 28.0876 227.827 29.1017C228.109 29.655 228.298 30.1164 228.393 30.486C228.395 30.7638 229.452 35.6628 229.651 37.3279C229.75 38.1604 229.754 38.7159 229.756 38.9011Z" fill="white"/>
<path d="M267.185 55.816C271.138 34.4956 271.825 31.6541 272.554 29.9268C272.954 29.2965 273.989 28.9737 274.496 30.0168C274.748 30.5845 274.912 31.0555 274.987 31.4298C274.974 31.7073 277.464 56.0139 277.513 56.943C277.664 57.6915 277.705 58.8057 277.826 60.2016C278.059 63.1783 278.087 64.57 278.885 65.3484C279.238 65.7355 279.784 65.9462 280.705 66.0815C281.445 66.1157 287.999 66.6973 288.87 65.9034C289.64 65.2902 289.809 63.6297 289.471 60.9261C289.413 60.1819 284.64 21.125 282.762 5.65197C282.553 4.15931 282.26 2.47738 281.642 1.79998C281.285 1.50538 280.554 1.28614 279.633 1.15083L271.217 0.761125C268.257 0.624086 267.491 1.14476 266.795 4.1712C265.242 11.6996 256.666 50.7873 254.568 60.0516C254.074 62.7166 253.337 64.6289 255.922 64.8413C257.86 65.0237 260.265 65.135 263.136 65.1753C264.431 65.2353 265.201 64.6221 265.543 63.2476C266.48 59.0274 267.058 56.5516 267.185 55.816Z" fill="white"/>
<path d="M328.014 49.6246L328.612 43.4501C329.076 35.7743 325.706 30.2386 320.114 27.4646C319.228 27.0067 317.956 26.6974 316.306 26.4446C314.186 26.2393 312.813 26.0132 312.361 25.8765C309.263 25.2044 309.938 23.0372 310.224 20.0882L311.483 7.09412C311.643 5.43529 311.474 4.30263 311.141 3.89831C310.392 2.98857 305.867 2.64337 302.993 2.55099C300.763 2.52109 300.751 4.56638 300.537 6.77815L295.146 62.4408C294.708 66.9565 294.791 67.0576 299.399 67.5039L309.997 68.5303C315.527 69.0658 325.251 67.5891 327.253 56.5274C327.371 56.2599 327.595 53.9559 328.014 49.6246ZM318.038 44.1003C317.431 50.367 317.389 57.5255 310.515 57.4179C305.595 57.3135 306.814 55.2921 307.555 47.6431C308.174 42.2148 307.951 44.5187 308.495 38.8971C308.73 37.4315 309.649 36.5903 311.335 36.4745C314.89 36.2607 318.538 38.9395 318.038 44.1003Z" fill="white"/>
<path d="M366.689 70.5892L374.906 15.9283C375.264 13.5478 375.947 11.497 373.502 10.9422C371.79 10.4976 366.31 9.58022 365.362 10.2804C364.836 10.6694 364.46 11.9237 364.116 14.2126C363.749 16.0301 363.336 18.7768 362.799 22.3476L361.574 30.4964C361.175 33.1516 360.932 36.0175 358.144 35.8792C355.708 35.8876 352.503 35.4059 351.556 34.2336C350.7 33.075 351.159 31.2714 351.599 28.3415L353.884 13.1426C354.297 10.3959 354.98 8.34506 352.535 7.79032C350.823 7.34569 345.343 6.4283 344.304 7.11469C343.777 7.50367 343.401 8.75797 343.057 11.0469L334.95 64.9753C334.455 68.2715 334.276 69.4617 334.807 70.2906C335.429 71.1331 336.999 71.2756 340.112 71.7435C344.599 72.418 345.02 72.1068 345.667 67.8035L348.172 51.1397C348.557 48.5761 348.641 46.1542 351.323 46.3703C354.006 46.5863 357.998 46.8119 358.345 49.4857C358.482 50.4426 358.381 51.7381 358.147 53.2947L355.844 69.2397C355.472 71.7118 354.895 73.6848 357.156 74.212C357.966 74.4275 359.157 74.6064 360.713 74.8404C365.657 75.5836 365.96 75.4418 366.689 70.5892Z" fill="white"/>
<path d="M406.772 66.0084L412.892 35.9789C413.887 31.1736 413.777 25.7617 410.701 21.4376C407.644 17.0228 403.317 15.0873 395.929 14.693C394.713 14.6304 393.622 14.8773 392.365 15.4682C386.318 18.1879 382.841 22.1958 381.915 27.5827L374.879 61.5827C374.279 64.4841 374.244 66.9352 374.919 69.155C378.47 81.2359 393.371 85.076 402.917 75.0437C403.539 74.3215 404.052 73.6712 404.311 72.874C405.806 69.3068 406.566 67.0057 406.772 66.0084ZM394.035 67.2489C391.652 70.5378 386.412 69.3589 385.731 65.3413C385.518 64.5409 385.709 63.1622 386.084 61.3488L392.201 31.7915C392.501 30.3408 392.689 29.4341 392.892 28.9089C394.484 24.4162 401.306 25.2608 401.837 30.0037C401.922 30.9666 401.896 32.0015 401.634 33.2708L395.292 63.9162C394.991 65.3668 394.566 66.508 394.035 67.2489Z" fill="white"/>
<path d="M440.145 83.5112C440.426 81.3821 438.566 81.1726 435.906 80.3663L427.14 78.0247C424.212 77.1467 423.646 76.0371 424.231 73.1269C424.883 70.33 425.528 67.9148 426.28 65.8158C427.486 62.0171 428.5 61.8088 431.9 62.7168C434.494 63.4097 436.551 63.9593 437.917 64.2283C439.193 64.4733 440.076 64.0383 440.41 62.786C441.091 60.9553 441.593 59.0768 442.005 57.1744C442.489 55.0037 442.12 54.2342 439.973 53.6607C439.371 53.404 438.297 53.1173 436.866 52.735C434.093 51.9942 432.101 51.558 431.291 50.2873C430.987 49.6311 430.868 48.641 431.178 47.4782C431.764 44.5679 432.553 41.616 433.454 38.5986C434.374 35.8734 435.418 35.1939 438.394 35.8929L447.25 38.2585C449.844 38.9514 451.674 39.6321 452.427 37.533C453.155 35.5234 454.439 31.0748 453.849 30.0546C453.498 29.5774 452.407 28.9984 450.349 28.4488L431.028 23.2877C426.644 22.1168 426.507 22.2718 425.312 26.7444L411.406 78.8053C410.522 82.115 410.122 83.254 410.736 84.1846C411.35 85.1153 412.87 85.5215 414.123 85.856L433.534 91.0411C435.412 91.5428 437.511 92.2952 438.264 90.1962C439.105 88.121 439.703 85.8847 440.145 83.5112Z" fill="white"/>
<path d="M83.9639 174.993C83.7187 174.176 83.3811 173.365 82.9512 172.561C78.4922 163.602 74.344 155.085 70.4208 147.109C69.3292 144.868 68.3635 143.081 67.6094 141.651C66.8621 140.313 66.7612 138.928 67.3923 137.396C67.3201 137.68 67.6356 136.914 68.4312 135.093C72.4544 125.33 75.0644 119.106 76.0832 116.525C76.4776 115.568 76.872 114.611 77.0952 113.852C77.3252 113.186 76.9087 112.566 76.2556 112.521C73.6498 112.432 70.6024 112.654 67.2059 113.18C65.5505 113.394 65.2031 114.997 64.2363 117.017C63.8419 117.974 63.3032 119.499 62.3431 121.611C61.5542 123.525 60.9231 125.057 60.4431 126.113C59.8976 127.545 59.3185 128.516 58.8837 128.919C58.1853 129.527 57.057 129.33 56.8118 128.513C56.1164 126.614 56.0876 124.945 55.879 122.082L55.6099 118.389C55.4484 116.172 55.4851 114.127 53.3545 114.19C51.2238 114.252 49.1923 114.4 47.1675 114.641C44.958 114.894 45.2974 117.005 45.506 119.867L49.422 173.611C49.5431 175.273 49.6239 176.381 49.7566 176.929C49.9701 178.584 50.5712 179.19 52.1411 179.076C53.9023 179.04 55.7492 178.906 57.5037 178.778C59.2447 178.465 59.7584 177.871 59.8085 176.011L59.3577 169.824C58.9993 163.63 58.7772 160.583 58.7907 160.767C58.6696 159.105 58.9515 157.878 59.6229 156.9C60.0443 156.313 61.06 156.239 61.5621 156.759C62.0642 157.28 62.6856 158.163 63.3405 159.507C63.7705 160.312 65.3055 163.542 67.9322 169.013C69.4672 172.243 70.2415 173.951 70.3607 174.313C71.4726 176.832 73.3078 177.812 75.7876 177.446L78.3732 177.257C81.2359 177.049 81.6053 177.022 83.0693 176.729C83.7946 176.491 84.2025 175.719 83.9639 174.993Z" fill="white"/>
<path d="M120.635 157.306L118.898 126.708C118.635 121.808 117.15 116.603 113.073 113.206C108.991 109.716 104.314 108.948 97.0696 110.45C95.8777 110.699 94.8855 111.216 93.8208 112.108C88.6671 116.279 86.3267 121.041 86.8047 126.486L88.6677 161.156C88.8267 164.115 89.4181 166.494 90.6369 168.468C97.1501 179.245 112.537 179.16 119.21 167.025C119.628 166.168 119.958 165.409 120.006 164.572C120.542 160.742 120.69 158.323 120.635 157.306ZM108.635 161.752C107.169 165.54 101.802 165.735 100.119 162.024C99.7096 161.305 99.5426 159.923 99.4432 158.074L97.8237 127.933C97.7442 126.454 97.6945 125.53 97.7572 124.97C98.151 120.22 104.963 119.298 106.686 123.748C107.013 124.658 107.252 125.665 107.322 126.959L109.001 158.209C109.08 159.688 108.96 160.9 108.635 161.752Z" fill="white"/>
<path d="M163.715 171.359C163.501 170.533 163.195 169.71 162.795 168.89C158.68 159.768 154.858 151.1 151.24 142.981C150.235 140.7 149.337 138.878 148.638 137.42C147.942 136.054 147.894 134.667 148.583 133.16C148.5 133.441 148.844 132.688 149.708 130.898C154.099 121.295 156.944 115.174 158.06 112.634C158.49 111.693 158.921 110.751 159.172 110.002C159.427 109.344 159.035 108.709 158.384 108.639C155.783 108.452 152.73 108.558 149.316 108.955C147.653 109.105 147.245 110.694 146.203 112.676C145.772 113.617 145.176 115.121 144.136 117.195C143.275 119.078 142.587 120.584 142.067 121.621C141.467 123.032 140.852 123.979 140.402 124.366C139.681 124.947 138.561 124.708 138.347 123.881C137.724 121.957 137.759 120.289 137.659 117.42L137.53 113.719C137.453 111.498 137.567 109.456 135.436 109.437C133.304 109.419 131.269 109.49 129.236 109.653C127.019 109.823 127.278 111.945 127.378 114.813L129.251 168.667C129.309 170.332 129.347 171.443 129.459 171.995C129.609 173.657 130.187 174.285 131.76 174.231C133.522 174.262 135.372 174.198 137.13 174.137C138.882 173.89 139.418 173.316 139.539 171.459L139.323 165.259C139.2 159.056 139.094 156.003 139.1 156.188C139.042 154.522 139.37 153.306 140.078 152.355C140.522 151.784 141.54 151.749 142.022 152.288C142.504 152.827 143.091 153.733 143.694 155.102C144.094 155.922 145.505 159.208 147.922 164.775C149.333 168.061 150.042 169.797 150.148 170.163C151.163 172.722 152.96 173.771 155.452 173.499L158.043 173.409C160.911 173.31 161.281 173.297 162.755 173.06C163.489 172.849 163.926 172.093 163.715 171.359Z" fill="white"/>
<path d="M203.247 154.999L202.665 124.358C202.587 119.451 201.299 114.193 197.353 110.645C193.406 107.004 188.761 106.06 181.465 107.287C180.265 107.492 179.254 107.971 178.156 108.822C172.849 112.796 170.33 117.466 170.603 122.925L171.157 157.641C171.205 160.604 171.706 163.003 172.85 165.022C178.952 176.037 194.331 176.532 201.457 164.658C201.907 163.817 202.265 163.071 202.344 162.236C203.024 158.428 203.264 156.017 203.247 154.999ZM191.088 158.99C189.481 162.719 184.11 162.712 182.568 158.94C182.186 158.206 182.071 156.819 182.041 154.967L181.559 124.787C181.536 123.306 181.521 122.38 181.605 121.823C182.177 117.092 189.019 116.427 190.573 120.939C190.865 121.861 191.067 122.876 191.087 124.172L191.587 155.463C191.611 156.944 191.445 158.15 191.088 158.99Z" fill="white"/>
<path d="M244.506 150.277C244.509 148.981 243.771 148.238 242.475 148.142C240.345 148.044 238.216 148.038 236.271 148.125C234.327 148.12 233.862 148.767 233.672 150.803L233.658 155.896C233.556 159.321 231.142 162 228.272 161.807C225.402 161.614 224.02 159.018 223.749 156.702C223.567 155.591 223.57 154.387 223.573 153.091C223.5 145.869 223.524 136.981 223.646 126.241C223.652 123.926 223.472 121.796 225.33 119.764C226.258 118.748 227.371 118.195 228.667 118.199C231.259 118.206 233.568 120.619 233.743 124.138C233.82 129.972 233.356 130.341 235.948 130.533C237.892 130.631 239.744 130.636 241.689 130.548C243.911 130.554 244.56 130 244.659 127.779C244.759 125.001 245.241 117.781 242.473 114.44C239.427 110.821 236.748 108.684 234.528 107.845C233.788 107.565 232.862 107.47 232.029 107.375C230.826 107.372 228.882 107.274 226.196 107.359C225.27 107.357 224.251 107.539 223.047 107.999C217.022 110.205 213.117 116.305 213.287 121.954L213.281 158.619C213.273 161.674 213.822 164.083 215.206 165.846C224.708 178.834 241.758 173.695 244.292 160.739C244.668 158.888 244.77 155.463 244.506 150.277Z" fill="white"/>
<path d="M286.907 155.789L287.468 125.147C287.572 120.241 286.482 114.939 282.671 111.246C278.862 107.46 274.255 106.343 266.919 107.298C265.712 107.458 264.683 107.899 263.555 108.708C258.103 112.481 255.412 117.055 255.481 122.52L254.741 157.233C254.678 160.195 255.089 162.611 256.156 164.671C261.844 175.906 277.194 176.974 284.758 165.374C285.238 164.551 285.624 163.818 285.735 162.987C286.556 159.208 286.885 156.807 286.907 155.789ZM274.607 159.323C272.862 162.99 267.495 162.783 266.095 158.956C265.74 158.208 265.677 156.818 265.717 154.966L266.361 124.789C266.392 123.308 266.412 122.383 266.516 121.829C267.265 117.122 274.127 116.713 275.511 121.28C275.769 122.212 275.932 123.234 275.905 124.53L275.237 155.818C275.206 157.299 274.995 158.498 274.607 159.323Z" fill="white"/>
<path d="M328.884 154.517C329.163 149.895 328.028 145.865 325.379 142.608C323.97 140.791 324 140.05 325.366 138.345C331.311 131.079 329.871 118.511 324.067 113.088C321.207 110.471 317.74 109.127 313.388 109.044C311.904 109.077 309.961 108.999 307.556 108.902C300.529 108.526 298.501 108.259 297.539 109.147C297.154 109.502 296.913 110.882 296.823 113.102L294.628 167.593C294.505 170.645 294.449 172.033 295.067 172.799C295.511 173.281 296.239 173.588 297.257 173.629C314.827 174.522 318.957 175.523 324.58 169.355C327.197 166.496 328.53 163.306 328.586 159.602C328.672 157.474 328.743 155.716 328.884 154.517ZM308.292 122.831C308.755 120.533 309.895 119.838 312.293 120.12C314.784 120.405 316.301 121.856 316.947 124.199L317.391 126.997C317.309 129.032 316.768 130.956 315.776 132.584C315.183 133.487 314.325 134.101 313.107 134.422C306.545 136.289 307.462 127.338 308.292 122.831ZM315.397 160.368C314.205 162.358 312.225 163.205 309.361 162.997C306.131 162.682 306.649 161.313 306.925 154.467C307.178 148.176 306.857 146.958 309.407 145.764C312.046 144.665 315.568 146.938 316.47 149.847C317.709 153.604 317.289 157.108 315.397 160.368Z" fill="white"/>
<path d="M366.949 159.597L368.68 128.999C368.972 124.101 368.084 118.761 364.417 114.925C360.756 110.997 356.195 109.704 348.828 110.378C347.615 110.492 346.571 110.893 345.412 111.659C339.82 115.221 336.957 119.688 336.817 125.152L334.751 159.811C334.575 162.769 334.894 165.199 335.882 167.299C341.136 178.742 356.434 180.396 364.435 169.093C364.947 168.289 365.36 167.572 365.502 166.745C366.468 163 366.888 160.614 366.949 159.597ZM354.523 162.659C352.639 166.257 347.284 165.845 346.031 161.967C345.705 161.206 345.696 159.814 345.806 157.966L347.602 127.835C347.69 126.357 347.745 125.432 347.87 124.883C348.798 120.208 355.671 120.061 356.88 124.678C357.102 125.619 357.226 126.647 357.149 127.941L355.287 159.18C355.199 160.659 354.942 161.849 354.523 162.659Z" fill="white"/>
<path d="M404.112 170.996C404.003 168.851 402.135 168.982 399.374 168.67L390.328 167.953C387.29 167.619 386.532 166.63 386.582 163.662C386.717 160.793 386.914 158.301 387.275 156.101C387.774 152.146 388.734 151.758 392.241 152.036C394.918 152.249 397.04 152.417 398.432 152.434C399.732 152.445 400.521 151.857 400.624 150.565C400.962 148.641 401.116 146.703 401.177 144.757C401.261 142.535 400.758 141.845 398.543 141.669C397.904 141.526 396.797 141.438 395.32 141.321C392.459 141.094 390.421 141.025 389.394 139.922C388.976 139.332 388.68 138.379 388.775 137.179C388.825 134.211 389.067 131.165 389.408 128.035C389.819 125.188 390.723 124.331 393.776 124.48L402.914 125.205C405.591 125.417 407.514 125.756 407.875 123.555C408.228 121.447 408.686 116.839 407.921 115.943C407.489 115.537 406.311 115.165 404.188 114.996L384.252 113.415C379.729 113.056 379.622 113.234 379.256 117.849L374.995 171.566C374.724 174.981 374.537 176.174 375.309 176.978C376.081 177.782 377.65 177.907 378.942 178.009L398.971 179.598C400.909 179.752 403.11 180.112 403.47 177.911C403.923 175.718 404.106 173.411 404.112 170.996Z" fill="white"/>
<path d="M166.695 255.85L164.633 201.54C164.531 198.857 164.817 196.623 162.315 196.625C159.443 196.641 155.927 196.775 151.768 197.025C148.992 197.131 149.343 199.063 148.761 203.255C148.454 204.934 148.318 206.237 148.172 207.261C147.637 210.247 147.051 214.346 146.312 219.284L144.548 231.397C144.563 231.767 144.477 231.955 144.392 232.144C143.8 233.649 142.498 233.513 142.086 232.417C141.673 231.32 141.364 230.498 141.254 230.039L135.519 205.889L133.981 199.554C133.658 198.362 132.893 197.742 131.875 197.781L120.588 198.209C118.278 198.39 118.644 200.692 118.746 203.375L120.808 257.685C120.924 260.739 120.72 262.692 122.951 262.885C125.271 262.983 127.584 262.895 129.798 262.625C132.097 262.167 131.827 259.954 131.729 257.363L131.132 241.635C131.072 240.062 131.215 238.945 131.471 238.379C131.55 238.005 132.461 237.6 132.859 238.326C133.36 239.326 133.666 240.056 133.872 240.604C134.519 242.989 135.478 246.288 136.565 250.509C136.984 251.79 138.593 257.566 139.24 259.95C139.676 261.694 140.249 262.136 142.103 262.158C144.701 262.245 147.565 262.043 148.281 261.368C148.637 260.983 148.979 260.229 149.218 259.201C149.525 257.522 149.992 255.187 150.52 252.017L152.098 242.321C152.323 240.923 152.658 239.983 153.01 239.507C153.188 239.315 153.37 239.215 153.647 239.205C153.925 239.194 154.113 239.28 154.216 239.554C154.824 240.92 155.261 242.664 155.345 244.885L155.802 256.913C155.89 259.226 155.786 261.361 157.643 261.475C160.152 261.658 162.557 261.567 164.952 261.198C167.07 260.839 166.793 258.441 166.695 255.85Z" fill="white"/>
<path d="M208.741 254.878C208.636 254.139 201.444 215.454 198.606 200.128C198.305 198.651 197.908 196.991 197.249 196.353C196.875 196.081 196.131 195.908 195.204 195.83L186.779 195.965C183.817 196.012 183.085 196.579 182.579 199.643C181.827 204.748 175.872 243.55 173.851 256.176C173.524 258.867 172.907 260.821 175.5 260.872C177.446 260.934 179.853 260.895 182.721 260.757C184.017 260.736 184.748 260.076 185.003 258.683C185.676 254.413 186.099 251.906 186.18 251.164C186.66 246.434 187.397 246.237 192.211 246.16C192.211 246.16 192.489 246.155 192.953 246.24C196.195 246.281 196.451 250.722 196.558 251.646C196.755 252.384 196.866 253.493 197.073 254.879C197.491 257.836 197.605 259.223 198.45 259.95C198.827 260.314 199.385 260.491 200.312 260.568C201.053 260.557 207.63 260.729 208.45 259.883C209.18 259.223 209.246 257.555 208.741 254.878ZM193.881 234.743C193.715 235.95 188.532 236.125 188.51 234.736C188.506 234.459 188.498 233.996 188.583 233.531C188.799 229.639 189.309 226.76 189.928 224.991C190.288 224.337 191.301 223.95 191.873 224.96C192.159 225.511 192.352 225.971 192.45 226.339C192.455 226.617 193.551 231.507 193.763 233.171C193.869 234.003 193.878 234.558 193.881 234.743Z" fill="white"/>
<path d="M249.744 238.26C249.749 236.964 249.011 236.22 247.715 236.123C245.585 236.024 243.456 236.017 241.511 236.103C239.567 236.096 239.102 236.743 238.91 238.779L238.893 243.871C238.789 247.297 236.372 249.974 233.503 249.779C230.633 249.584 229.253 246.987 228.983 244.671C228.802 243.56 228.806 242.356 228.81 241.06C228.742 233.838 228.772 224.949 228.9 214.209C228.908 211.895 228.73 209.765 230.589 207.734C231.518 206.718 232.631 206.167 233.927 206.171C236.52 206.18 238.826 208.595 238.999 212.114C239.072 217.947 238.608 218.316 241.2 218.51C243.144 218.609 244.996 218.615 246.941 218.529C249.163 218.537 249.813 217.983 249.913 215.761C250.015 212.984 250.502 205.764 247.735 202.421C244.692 198.8 242.014 196.662 239.795 195.821C239.055 195.541 238.13 195.445 237.297 195.35C236.093 195.345 234.149 195.246 231.464 195.33C230.538 195.327 229.519 195.509 228.314 195.967C222.288 198.169 218.379 204.267 218.545 209.915L218.514 246.58C218.504 249.636 219.051 252.045 220.434 253.809C229.927 266.803 246.981 261.675 249.524 248.722C249.901 246.871 250.005 243.446 249.744 238.26Z" fill="white"/>
<path d="M271.829 251.228C275.277 229.821 275.898 226.964 276.585 225.22C276.97 224.58 277.997 224.233 278.529 225.264C278.794 225.825 278.969 226.292 279.053 226.665C279.047 226.942 282.11 251.183 282.181 252.111C282.35 252.856 282.417 253.969 282.571 255.361C282.874 258.332 282.935 259.722 283.752 260.482C284.113 260.86 284.665 261.058 285.588 261.172C286.329 261.188 292.894 261.615 293.746 260.801C294.502 260.169 294.632 258.505 294.23 255.811C294.154 255.068 288.46 216.135 286.217 200.71C285.972 199.223 285.64 197.548 285.007 196.886C284.643 196.6 283.906 196.398 282.983 196.284L274.559 196.094C271.597 196.026 270.844 196.565 270.22 199.607C268.844 207.17 261.194 246.45 259.316 255.761C258.885 258.437 258.193 260.366 260.783 260.517C262.725 260.654 265.131 260.708 268.003 260.681C269.299 260.71 270.054 260.079 270.363 258.697C271.2 254.455 271.72 251.967 271.829 251.228Z" fill="white"/>
<path d="M335.159 245.508L336.36 214.885C336.567 209.982 335.587 204.658 331.855 200.887C328.126 197.022 323.543 195.809 316.189 196.611C314.978 196.745 313.941 197.165 312.796 197.95C307.266 201.609 304.481 206.125 304.435 211.59L302.97 246.28C302.845 249.24 303.206 251.665 304.23 253.747C309.682 265.098 325.006 266.486 332.81 255.047C333.308 254.234 333.709 253.509 333.837 252.681C334.737 248.919 335.116 246.526 335.159 245.508ZM322.789 248.785C320.967 252.415 315.606 252.096 314.286 248.241C313.947 247.485 313.913 246.093 313.991 244.243L315.265 214.087C315.328 212.606 315.367 211.681 315.483 211.13C316.329 206.44 323.198 206.174 324.487 210.769C324.725 211.706 324.867 212.731 324.813 214.026L323.492 245.293C323.43 246.773 323.194 247.968 322.789 248.785Z" fill="white"/>
</svg>
